<svg class="main-svg" xmlns="http://www.w3.org/2000/svg" xmlns:xlink="http://www.w3.org/1999/xlink" width="700" height="500" style="" viewBox="0 0 700 500"><rect x="0" y="0" width="700" height="500" style="fill: rgb(255, 255, 255); fill-opacity: 1;"/><defs id="defs-25e83c"><g class="clips"/><g class="gradients"/><g class="patterns"/></defs><g class="bglayer"/><g class="layer-below"><g class="imagelayer"/><g class="shapelayer"/></g><g class="cartesianlayer"/><g class="polarlayer"/><g class="smithlayer"/><g class="ternarylayer"/><g class="geolayer"/><g class="funnelarealayer"/><g class="pielayer"/><g class="iciclelayer"/><g class="treemaplayer"/><g class="sunburstlayer"><g class="trace sunburst" stroke-linejoin="round" style="opacity: 1;"><g class="slice cursor-pointer"><path class="surface" d="M350,260L430,260A80,80 0,1,0 327.970487186558,336.90709047417147L350,260A0,0 0,1,1 350,260Z" style="pointer-events: none; stroke-width: 1; fill: rgb(99, 110, 250); fill-opacity: 1; stroke: rgb(255, 255, 255); stroke-opacity: 1;"/><g class="slicetext"><text data-notex="1" class="slicetext" text-anchor="middle" x="0" y="0" style="font-family: 'Open Sans', verdana, arial, sans-serif; font-size: 12px; fill: rgb(255, 255, 255); fill-opacity: 1; white-space: pre;" transform="translate(337.57597410831977,243.51754953809572)rotate(-37.00800000000004)">Employed</text></g></g><g class="slice cursor-pointer"><path class="surface" d="M350,260L327.970487186558,336.90709047417147A80,80 0,0,0 430,260L350,260A0,0 0,0,1 350,260Z" style="pointer-events: none; stroke-width: 1; fill: rgb(239, 85, 59); fill-opacity: 1; stroke: rgb(255, 255, 255); stroke-opacity: 1;"/><g class="slicetext"><text data-notex="1" class="slicetext" text-anchor="middle" x="0" y="0" style="font-family: 'Open Sans', verdana, arial, sans-serif; font-size: 12px; fill: rgb(68, 68, 68); fill-opacity: 1; white-space: pre;" transform="translate(383.82649556107805,304.87623756150214)rotate(-37.00800000000004)">Unemployed</text></g></g><g class="slice"><path class="surface" d="M430,260L510,260A160,160 0,1,0 286.456337498435,406.840740109437L318.2281687492175,333.4203700547185A80,80 0,1,1 430,260Z" style="pointer-events: none; stroke-width: 1; fill: rgb(99, 110, 250); fill-opacity: 1; stroke: rgb(255, 255, 255); stroke-opacity: 1; opacity: 0.7;"/><g class="slicetext"><text data-notex="1" class="slicetext" text-anchor="middle" x="0" y="0" style="font-family: 'Open Sans', verdana, arial, sans-serif; font-size: 12px; fill: rgb(255, 255, 255); fill-opacity: 1; white-space: pre;" transform="translate(295.2796972808334,176.696300536756)rotate(-33.299999999999955)">Not defaulted</text></g></g><g class="slice"><path class="surface" d="M318.2281687492175,333.4203700547185L286.456337498435,406.840740109437A160,160 0,0,0 305.940974373116,413.81418094834294L327.970487186558,336.90709047417147A80,80 0,0,1 318.2281687492175,333.4203700547185Z" style="pointer-events: none; stroke-width: 1; fill: rgb(99, 110, 250); fill-opacity: 1; stroke: rgb(255, 255, 255); stroke-opacity: 1; opacity: 0.7;"/><g class="slicetext"><text data-notex="1" class="slicetext" text-anchor="middle" x="0" y="0" style="font-family: 'Open Sans', verdana, arial, sans-serif; font-size: 12px; fill: rgb(255, 255, 255); fill-opacity: 1; white-space: pre;" transform="translate(307.5967064365425,389.51789214553736)scale(0.8265319835120664)rotate(-70.30799999999999)">Defaulted</text></g></g><g class="slice"><path class="surface" d="M327.970487186558,336.90709047417147L305.940974373116,413.81418094834294A160,160 0,0,0 509.49087232276895,272.75388747489234L429.7454361613845,266.3769437374462A80,80 0,0,1 327.970487186558,336.90709047417147Z" style="pointer-events: none; stroke-width: 1; fill: rgb(239, 85, 59); fill-opacity: 1; stroke: rgb(255, 255, 255); stroke-opacity: 1; opacity: 0.7;"/><g class="slicetext"><text data-notex="1" class="slicetext" text-anchor="middle" x="0" y="0" style="font-family: 'Open Sans', verdana, arial, sans-serif; font-size: 12px; fill: rgb(68, 68, 68); fill-opacity: 1; white-space: pre;" transform="translate(418.3514194528386,363.13104713416624)">Not defaulted</text></g></g><g class="slice"><path class="surface" d="M429.7454361613845,266.3769437374462L509.49087232276895,272.75388747489234A160,160 0,0,0 510,260.00000000000006L430,260A80,80 0,0,1 429.7454361613845,266.3769437374462Z" style="pointer-events: none; stroke-width: 1; fill: rgb(239, 85, 59); fill-opacity: 1; stroke: rgb(255, 255, 255); stroke-opacity: 1; opacity: 0.7;"/><g class="slicetext"><text data-notex="1" class="slicetext" text-anchor="middle" x="0" y="0" style="font-family: 'Open Sans', verdana, arial, sans-serif; font-size: 12px; fill: rgb(68, 68, 68); fill-opacity: 1; white-space: pre;" transform="translate(493.2956190814995,268.30784313593415)scale(0.5745571443310971)rotate(2.2859999999999445)">Defaulted</text></g></g></g></g><g class="glimages"/><defs id="topdefs-25e83c"><g class="clips"/></defs><g class="layer-above"><g class="imagelayer"/><g class="shapelayer"/></g><g class="infolayer"><g class="g-gtitle"><text class="gtitle" x="35" y="50" text-anchor="start" dy="0em" style="font-family: 'Open Sans', verdana, arial, sans-serif; font-size: 17px; fill: rgb(42, 63, 95); opacity: 1; font-weight: normal; white-space: pre;">Default related with employment</text></g></g></svg>