<?xml version="1.0" encoding="utf-8" standalone="no"?>
<!DOCTYPE svg PUBLIC "-//W3C//DTD SVG 1.1//EN"
  "http://www.w3.org/Graphics/SVG/1.1/DTD/svg11.dtd">
<svg xmlns:xlink="http://www.w3.org/1999/xlink" width="576pt" height="432pt" viewBox="0 0 576 432" xmlns="http://www.w3.org/2000/svg" version="1.1">
 <metadata>
  <rdf:RDF xmlns:dc="http://purl.org/dc/elements/1.1/" xmlns:cc="http://creativecommons.org/ns#" xmlns:rdf="http://www.w3.org/1999/02/22-rdf-syntax-ns#">
   <cc:Work>
    <dc:type rdf:resource="http://purl.org/dc/dcmitype/StillImage"/>
    <dc:date>2022-12-03T21:56:48.341107</dc:date>
    <dc:format>image/svg+xml</dc:format>
    <dc:creator>
     <cc:Agent>
      <dc:title>Matplotlib v3.6.2, https://matplotlib.org/</dc:title>
     </cc:Agent>
    </dc:creator>
   </cc:Work>
  </rdf:RDF>
 </metadata>
 <defs>
  <style type="text/css">*{stroke-linejoin: round; stroke-linecap: butt}</style>
 </defs>
 <g id="figure_1">
  <g id="patch_1">
   <path d="M 0 432 
L 576 432 
L 576 0 
L 0 0 
z
" style="fill: #ffffff"/>
  </g>
  <g id="axes_1">
   <g id="patch_2">
    <path d="M 72 384.48 
L 518.4 384.48 
L 518.4 51.84 
L 72 51.84 
z
" style="fill: #eaeaf2"/>
   </g>
   <g id="matplotlib.axis_1">
    <g id="xtick_1">
     <g id="line2d_1">
      <path d="M 92.290909 384.48 
L 92.290909 51.84 
" clip-path="url(#pca36a5166e)" style="fill: none; stroke: #ffffff; stroke-linecap: round"/>
     </g>
     <g id="text_1">
      <!-- 0.0 -->
      <g style="fill: #262626" transform="translate(84.645909 401.853594) scale(0.11 -0.11)">
       <defs>
        <path id="ArialMT-30" d="M 266 2259 
Q 266 3072 433 3567 
Q 600 4063 929 4331 
Q 1259 4600 1759 4600 
Q 2128 4600 2406 4451 
Q 2684 4303 2865 4023 
Q 3047 3744 3150 3342 
Q 3253 2941 3253 2259 
Q 3253 1453 3087 958 
Q 2922 463 2592 192 
Q 2263 -78 1759 -78 
Q 1097 -78 719 397 
Q 266 969 266 2259 
z
M 844 2259 
Q 844 1131 1108 757 
Q 1372 384 1759 384 
Q 2147 384 2411 759 
Q 2675 1134 2675 2259 
Q 2675 3391 2411 3762 
Q 2147 4134 1753 4134 
Q 1366 4134 1134 3806 
Q 844 3388 844 2259 
z
" transform="scale(0.015625)"/>
        <path id="ArialMT-2e" d="M 581 0 
L 581 641 
L 1222 641 
L 1222 0 
L 581 0 
z
" transform="scale(0.015625)"/>
       </defs>
       <use xlink:href="#ArialMT-30"/>
       <use xlink:href="#ArialMT-2e" x="55.615234"/>
       <use xlink:href="#ArialMT-30" x="83.398438"/>
      </g>
     </g>
    </g>
    <g id="xtick_2">
     <g id="line2d_2">
      <path d="M 173.454545 384.48 
L 173.454545 51.84 
" clip-path="url(#pca36a5166e)" style="fill: none; stroke: #ffffff; stroke-linecap: round"/>
     </g>
     <g id="text_2">
      <!-- 0.2 -->
      <g style="fill: #262626" transform="translate(165.809545 401.853594) scale(0.11 -0.11)">
       <defs>
        <path id="ArialMT-32" d="M 3222 541 
L 3222 0 
L 194 0 
Q 188 203 259 391 
Q 375 700 629 1000 
Q 884 1300 1366 1694 
Q 2113 2306 2375 2664 
Q 2638 3022 2638 3341 
Q 2638 3675 2398 3904 
Q 2159 4134 1775 4134 
Q 1369 4134 1125 3890 
Q 881 3647 878 3216 
L 300 3275 
Q 359 3922 746 4261 
Q 1134 4600 1788 4600 
Q 2447 4600 2831 4234 
Q 3216 3869 3216 3328 
Q 3216 3053 3103 2787 
Q 2991 2522 2730 2228 
Q 2469 1934 1863 1422 
Q 1356 997 1212 845 
Q 1069 694 975 541 
L 3222 541 
z
" transform="scale(0.015625)"/>
       </defs>
       <use xlink:href="#ArialMT-30"/>
       <use xlink:href="#ArialMT-2e" x="55.615234"/>
       <use xlink:href="#ArialMT-32" x="83.398438"/>
      </g>
     </g>
    </g>
    <g id="xtick_3">
     <g id="line2d_3">
      <path d="M 254.618182 384.48 
L 254.618182 51.84 
" clip-path="url(#pca36a5166e)" style="fill: none; stroke: #ffffff; stroke-linecap: round"/>
     </g>
     <g id="text_3">
      <!-- 0.4 -->
      <g style="fill: #262626" transform="translate(246.973182 401.853594) scale(0.11 -0.11)">
       <defs>
        <path id="ArialMT-34" d="M 2069 0 
L 2069 1097 
L 81 1097 
L 81 1613 
L 2172 4581 
L 2631 4581 
L 2631 1613 
L 3250 1613 
L 3250 1097 
L 2631 1097 
L 2631 0 
L 2069 0 
z
M 2069 1613 
L 2069 3678 
L 634 1613 
L 2069 1613 
z
" transform="scale(0.015625)"/>
       </defs>
       <use xlink:href="#ArialMT-30"/>
       <use xlink:href="#ArialMT-2e" x="55.615234"/>
       <use xlink:href="#ArialMT-34" x="83.398438"/>
      </g>
     </g>
    </g>
    <g id="xtick_4">
     <g id="line2d_4">
      <path d="M 335.781818 384.48 
L 335.781818 51.84 
" clip-path="url(#pca36a5166e)" style="fill: none; stroke: #ffffff; stroke-linecap: round"/>
     </g>
     <g id="text_4">
      <!-- 0.6 -->
      <g style="fill: #262626" transform="translate(328.136818 401.853594) scale(0.11 -0.11)">
       <defs>
        <path id="ArialMT-36" d="M 3184 3459 
L 2625 3416 
Q 2550 3747 2413 3897 
Q 2184 4138 1850 4138 
Q 1581 4138 1378 3988 
Q 1113 3794 959 3422 
Q 806 3050 800 2363 
Q 1003 2672 1297 2822 
Q 1591 2972 1913 2972 
Q 2475 2972 2870 2558 
Q 3266 2144 3266 1488 
Q 3266 1056 3080 686 
Q 2894 316 2569 119 
Q 2244 -78 1831 -78 
Q 1128 -78 684 439 
Q 241 956 241 2144 
Q 241 3472 731 4075 
Q 1159 4600 1884 4600 
Q 2425 4600 2770 4297 
Q 3116 3994 3184 3459 
z
M 888 1484 
Q 888 1194 1011 928 
Q 1134 663 1356 523 
Q 1578 384 1822 384 
Q 2178 384 2434 671 
Q 2691 959 2691 1453 
Q 2691 1928 2437 2201 
Q 2184 2475 1800 2475 
Q 1419 2475 1153 2201 
Q 888 1928 888 1484 
z
" transform="scale(0.015625)"/>
       </defs>
       <use xlink:href="#ArialMT-30"/>
       <use xlink:href="#ArialMT-2e" x="55.615234"/>
       <use xlink:href="#ArialMT-36" x="83.398438"/>
      </g>
     </g>
    </g>
    <g id="xtick_5">
     <g id="line2d_5">
      <path d="M 416.945455 384.48 
L 416.945455 51.84 
" clip-path="url(#pca36a5166e)" style="fill: none; stroke: #ffffff; stroke-linecap: round"/>
     </g>
     <g id="text_5">
      <!-- 0.8 -->
      <g style="fill: #262626" transform="translate(409.300455 401.853594) scale(0.11 -0.11)">
       <defs>
        <path id="ArialMT-38" d="M 1131 2484 
Q 781 2613 612 2850 
Q 444 3088 444 3419 
Q 444 3919 803 4259 
Q 1163 4600 1759 4600 
Q 2359 4600 2725 4251 
Q 3091 3903 3091 3403 
Q 3091 3084 2923 2848 
Q 2756 2613 2416 2484 
Q 2838 2347 3058 2040 
Q 3278 1734 3278 1309 
Q 3278 722 2862 322 
Q 2447 -78 1769 -78 
Q 1091 -78 675 323 
Q 259 725 259 1325 
Q 259 1772 486 2073 
Q 713 2375 1131 2484 
z
M 1019 3438 
Q 1019 3113 1228 2906 
Q 1438 2700 1772 2700 
Q 2097 2700 2305 2904 
Q 2513 3109 2513 3406 
Q 2513 3716 2298 3927 
Q 2084 4138 1766 4138 
Q 1444 4138 1231 3931 
Q 1019 3725 1019 3438 
z
M 838 1322 
Q 838 1081 952 856 
Q 1066 631 1291 507 
Q 1516 384 1775 384 
Q 2178 384 2440 643 
Q 2703 903 2703 1303 
Q 2703 1709 2433 1975 
Q 2163 2241 1756 2241 
Q 1359 2241 1098 1978 
Q 838 1716 838 1322 
z
" transform="scale(0.015625)"/>
       </defs>
       <use xlink:href="#ArialMT-30"/>
       <use xlink:href="#ArialMT-2e" x="55.615234"/>
       <use xlink:href="#ArialMT-38" x="83.398438"/>
      </g>
     </g>
    </g>
    <g id="xtick_6">
     <g id="line2d_6">
      <path d="M 498.109091 384.48 
L 498.109091 51.84 
" clip-path="url(#pca36a5166e)" style="fill: none; stroke: #ffffff; stroke-linecap: round"/>
     </g>
     <g id="text_6">
      <!-- 1.0 -->
      <g style="fill: #262626" transform="translate(490.464091 401.853594) scale(0.11 -0.11)">
       <defs>
        <path id="ArialMT-31" d="M 2384 0 
L 1822 0 
L 1822 3584 
Q 1619 3391 1289 3197 
Q 959 3003 697 2906 
L 697 3450 
Q 1169 3672 1522 3987 
Q 1875 4303 2022 4600 
L 2384 4600 
L 2384 0 
z
" transform="scale(0.015625)"/>
       </defs>
       <use xlink:href="#ArialMT-31"/>
       <use xlink:href="#ArialMT-2e" x="55.615234"/>
       <use xlink:href="#ArialMT-30" x="83.398438"/>
      </g>
     </g>
    </g>
    <g id="text_7">
     <!-- Recall -->
     <g style="fill: #262626" transform="translate(278.5275 416.629219) scale(0.12 -0.12)">
      <defs>
       <path id="ArialMT-52" d="M 503 0 
L 503 4581 
L 2534 4581 
Q 3147 4581 3465 4457 
Q 3784 4334 3975 4021 
Q 4166 3709 4166 3331 
Q 4166 2844 3850 2509 
Q 3534 2175 2875 2084 
Q 3116 1969 3241 1856 
Q 3506 1613 3744 1247 
L 4541 0 
L 3778 0 
L 3172 953 
Q 2906 1366 2734 1584 
Q 2563 1803 2427 1890 
Q 2291 1978 2150 2013 
Q 2047 2034 1813 2034 
L 1109 2034 
L 1109 0 
L 503 0 
z
M 1109 2559 
L 2413 2559 
Q 2828 2559 3062 2645 
Q 3297 2731 3419 2920 
Q 3541 3109 3541 3331 
Q 3541 3656 3305 3865 
Q 3069 4075 2559 4075 
L 1109 4075 
L 1109 2559 
z
" transform="scale(0.015625)"/>
       <path id="ArialMT-65" d="M 2694 1069 
L 3275 997 
Q 3138 488 2766 206 
Q 2394 -75 1816 -75 
Q 1088 -75 661 373 
Q 234 822 234 1631 
Q 234 2469 665 2931 
Q 1097 3394 1784 3394 
Q 2450 3394 2872 2941 
Q 3294 2488 3294 1666 
Q 3294 1616 3291 1516 
L 816 1516 
Q 847 969 1125 678 
Q 1403 388 1819 388 
Q 2128 388 2347 550 
Q 2566 713 2694 1069 
z
M 847 1978 
L 2700 1978 
Q 2663 2397 2488 2606 
Q 2219 2931 1791 2931 
Q 1403 2931 1139 2672 
Q 875 2413 847 1978 
z
" transform="scale(0.015625)"/>
       <path id="ArialMT-63" d="M 2588 1216 
L 3141 1144 
Q 3050 572 2676 248 
Q 2303 -75 1759 -75 
Q 1078 -75 664 370 
Q 250 816 250 1647 
Q 250 2184 428 2587 
Q 606 2991 970 3192 
Q 1334 3394 1763 3394 
Q 2303 3394 2647 3120 
Q 2991 2847 3088 2344 
L 2541 2259 
Q 2463 2594 2264 2762 
Q 2066 2931 1784 2931 
Q 1359 2931 1093 2626 
Q 828 2322 828 1663 
Q 828 994 1084 691 
Q 1341 388 1753 388 
Q 2084 388 2306 591 
Q 2528 794 2588 1216 
z
" transform="scale(0.015625)"/>
       <path id="ArialMT-61" d="M 2588 409 
Q 2275 144 1986 34 
Q 1697 -75 1366 -75 
Q 819 -75 525 192 
Q 231 459 231 875 
Q 231 1119 342 1320 
Q 453 1522 633 1644 
Q 813 1766 1038 1828 
Q 1203 1872 1538 1913 
Q 2219 1994 2541 2106 
Q 2544 2222 2544 2253 
Q 2544 2597 2384 2738 
Q 2169 2928 1744 2928 
Q 1347 2928 1158 2789 
Q 969 2650 878 2297 
L 328 2372 
Q 403 2725 575 2942 
Q 747 3159 1072 3276 
Q 1397 3394 1825 3394 
Q 2250 3394 2515 3294 
Q 2781 3194 2906 3042 
Q 3031 2891 3081 2659 
Q 3109 2516 3109 2141 
L 3109 1391 
Q 3109 606 3145 398 
Q 3181 191 3288 0 
L 2700 0 
Q 2613 175 2588 409 
z
M 2541 1666 
Q 2234 1541 1622 1453 
Q 1275 1403 1131 1340 
Q 988 1278 909 1158 
Q 831 1038 831 891 
Q 831 666 1001 516 
Q 1172 366 1500 366 
Q 1825 366 2078 508 
Q 2331 650 2450 897 
Q 2541 1088 2541 1459 
L 2541 1666 
z
" transform="scale(0.015625)"/>
       <path id="ArialMT-6c" d="M 409 0 
L 409 4581 
L 972 4581 
L 972 0 
L 409 0 
z
" transform="scale(0.015625)"/>
      </defs>
      <use xlink:href="#ArialMT-52"/>
      <use xlink:href="#ArialMT-65" x="72.216797"/>
      <use xlink:href="#ArialMT-63" x="127.832031"/>
      <use xlink:href="#ArialMT-61" x="177.832031"/>
      <use xlink:href="#ArialMT-6c" x="233.447266"/>
      <use xlink:href="#ArialMT-6c" x="255.664062"/>
     </g>
    </g>
   </g>
   <g id="matplotlib.axis_2">
    <g id="ytick_1">
     <g id="line2d_7">
      <path d="M 72 369.36 
L 518.4 369.36 
" clip-path="url(#pca36a5166e)" style="fill: none; stroke: #ffffff; stroke-linecap: round"/>
     </g>
     <g id="text_8">
      <!-- 0.0 -->
      <g style="fill: #262626" transform="translate(47.21 373.296797) scale(0.11 -0.11)">
       <use xlink:href="#ArialMT-30"/>
       <use xlink:href="#ArialMT-2e" x="55.615234"/>
       <use xlink:href="#ArialMT-30" x="83.398438"/>
      </g>
     </g>
    </g>
    <g id="ytick_2">
     <g id="line2d_8">
      <path d="M 72 308.88 
L 518.4 308.88 
" clip-path="url(#pca36a5166e)" style="fill: none; stroke: #ffffff; stroke-linecap: round"/>
     </g>
     <g id="text_9">
      <!-- 0.2 -->
      <g style="fill: #262626" transform="translate(47.21 312.816797) scale(0.11 -0.11)">
       <use xlink:href="#ArialMT-30"/>
       <use xlink:href="#ArialMT-2e" x="55.615234"/>
       <use xlink:href="#ArialMT-32" x="83.398438"/>
      </g>
     </g>
    </g>
    <g id="ytick_3">
     <g id="line2d_9">
      <path d="M 72 248.4 
L 518.4 248.4 
" clip-path="url(#pca36a5166e)" style="fill: none; stroke: #ffffff; stroke-linecap: round"/>
     </g>
     <g id="text_10">
      <!-- 0.4 -->
      <g style="fill: #262626" transform="translate(47.21 252.336797) scale(0.11 -0.11)">
       <use xlink:href="#ArialMT-30"/>
       <use xlink:href="#ArialMT-2e" x="55.615234"/>
       <use xlink:href="#ArialMT-34" x="83.398438"/>
      </g>
     </g>
    </g>
    <g id="ytick_4">
     <g id="line2d_10">
      <path d="M 72 187.92 
L 518.4 187.92 
" clip-path="url(#pca36a5166e)" style="fill: none; stroke: #ffffff; stroke-linecap: round"/>
     </g>
     <g id="text_11">
      <!-- 0.6 -->
      <g style="fill: #262626" transform="translate(47.21 191.856797) scale(0.11 -0.11)">
       <use xlink:href="#ArialMT-30"/>
       <use xlink:href="#ArialMT-2e" x="55.615234"/>
       <use xlink:href="#ArialMT-36" x="83.398438"/>
      </g>
     </g>
    </g>
    <g id="ytick_5">
     <g id="line2d_11">
      <path d="M 72 127.44 
L 518.4 127.44 
" clip-path="url(#pca36a5166e)" style="fill: none; stroke: #ffffff; stroke-linecap: round"/>
     </g>
     <g id="text_12">
      <!-- 0.8 -->
      <g style="fill: #262626" transform="translate(47.21 131.376797) scale(0.11 -0.11)">
       <use xlink:href="#ArialMT-30"/>
       <use xlink:href="#ArialMT-2e" x="55.615234"/>
       <use xlink:href="#ArialMT-38" x="83.398438"/>
      </g>
     </g>
    </g>
    <g id="ytick_6">
     <g id="line2d_12">
      <path d="M 72 66.96 
L 518.4 66.96 
" clip-path="url(#pca36a5166e)" style="fill: none; stroke: #ffffff; stroke-linecap: round"/>
     </g>
     <g id="text_13">
      <!-- 1.0 -->
      <g style="fill: #262626" transform="translate(47.21 70.896797) scale(0.11 -0.11)">
       <use xlink:href="#ArialMT-31"/>
       <use xlink:href="#ArialMT-2e" x="55.615234"/>
       <use xlink:href="#ArialMT-30" x="83.398438"/>
      </g>
     </g>
    </g>
    <g id="text_14">
     <!-- Precision -->
     <g style="fill: #262626" transform="translate(40.825 242.835937) rotate(-90) scale(0.12 -0.12)">
      <defs>
       <path id="ArialMT-50" d="M 494 0 
L 494 4581 
L 2222 4581 
Q 2678 4581 2919 4538 
Q 3256 4481 3484 4323 
Q 3713 4166 3852 3881 
Q 3991 3597 3991 3256 
Q 3991 2672 3619 2267 
Q 3247 1863 2275 1863 
L 1100 1863 
L 1100 0 
L 494 0 
z
M 1100 2403 
L 2284 2403 
Q 2872 2403 3119 2622 
Q 3366 2841 3366 3238 
Q 3366 3525 3220 3729 
Q 3075 3934 2838 4000 
Q 2684 4041 2272 4041 
L 1100 4041 
L 1100 2403 
z
" transform="scale(0.015625)"/>
       <path id="ArialMT-72" d="M 416 0 
L 416 3319 
L 922 3319 
L 922 2816 
Q 1116 3169 1280 3281 
Q 1444 3394 1641 3394 
Q 1925 3394 2219 3213 
L 2025 2691 
Q 1819 2813 1613 2813 
Q 1428 2813 1281 2702 
Q 1134 2591 1072 2394 
Q 978 2094 978 1738 
L 978 0 
L 416 0 
z
" transform="scale(0.015625)"/>
       <path id="ArialMT-69" d="M 425 3934 
L 425 4581 
L 988 4581 
L 988 3934 
L 425 3934 
z
M 425 0 
L 425 3319 
L 988 3319 
L 988 0 
L 425 0 
z
" transform="scale(0.015625)"/>
       <path id="ArialMT-73" d="M 197 991 
L 753 1078 
Q 800 744 1014 566 
Q 1228 388 1613 388 
Q 2000 388 2187 545 
Q 2375 703 2375 916 
Q 2375 1106 2209 1216 
Q 2094 1291 1634 1406 
Q 1016 1563 777 1677 
Q 538 1791 414 1992 
Q 291 2194 291 2438 
Q 291 2659 392 2848 
Q 494 3038 669 3163 
Q 800 3259 1026 3326 
Q 1253 3394 1513 3394 
Q 1903 3394 2198 3281 
Q 2494 3169 2634 2976 
Q 2775 2784 2828 2463 
L 2278 2388 
Q 2241 2644 2061 2787 
Q 1881 2931 1553 2931 
Q 1166 2931 1000 2803 
Q 834 2675 834 2503 
Q 834 2394 903 2306 
Q 972 2216 1119 2156 
Q 1203 2125 1616 2013 
Q 2213 1853 2448 1751 
Q 2684 1650 2818 1456 
Q 2953 1263 2953 975 
Q 2953 694 2789 445 
Q 2625 197 2315 61 
Q 2006 -75 1616 -75 
Q 969 -75 630 194 
Q 291 463 197 991 
z
" transform="scale(0.015625)"/>
       <path id="ArialMT-6f" d="M 213 1659 
Q 213 2581 725 3025 
Q 1153 3394 1769 3394 
Q 2453 3394 2887 2945 
Q 3322 2497 3322 1706 
Q 3322 1066 3130 698 
Q 2938 331 2570 128 
Q 2203 -75 1769 -75 
Q 1072 -75 642 372 
Q 213 819 213 1659 
z
M 791 1659 
Q 791 1022 1069 705 
Q 1347 388 1769 388 
Q 2188 388 2466 706 
Q 2744 1025 2744 1678 
Q 2744 2294 2464 2611 
Q 2184 2928 1769 2928 
Q 1347 2928 1069 2612 
Q 791 2297 791 1659 
z
" transform="scale(0.015625)"/>
       <path id="ArialMT-6e" d="M 422 0 
L 422 3319 
L 928 3319 
L 928 2847 
Q 1294 3394 1984 3394 
Q 2284 3394 2536 3286 
Q 2788 3178 2913 3003 
Q 3038 2828 3088 2588 
Q 3119 2431 3119 2041 
L 3119 0 
L 2556 0 
L 2556 2019 
Q 2556 2363 2490 2533 
Q 2425 2703 2258 2804 
Q 2091 2906 1866 2906 
Q 1506 2906 1245 2678 
Q 984 2450 984 1813 
L 984 0 
L 422 0 
z
" transform="scale(0.015625)"/>
      </defs>
      <use xlink:href="#ArialMT-50"/>
      <use xlink:href="#ArialMT-72" x="66.699219"/>
      <use xlink:href="#ArialMT-65" x="100"/>
      <use xlink:href="#ArialMT-63" x="155.615234"/>
      <use xlink:href="#ArialMT-69" x="205.615234"/>
      <use xlink:href="#ArialMT-73" x="227.832031"/>
      <use xlink:href="#ArialMT-69" x="277.832031"/>
      <use xlink:href="#ArialMT-6f" x="300.048828"/>
      <use xlink:href="#ArialMT-6e" x="355.664062"/>
     </g>
    </g>
   </g>
   <g id="line2d_13">
    <path d="M 498.109091 359.28 
L 498.109091 353.257764 
L 494.050909 353.410293 
L 494.050909 353.307668 
L 494.050909 351.770341 
L 489.992727 351.937778 
L 489.992727 351.834749 
L 489.992727 350.579772 
L 485.934545 350.75962 
L 485.934545 350.652857 
L 485.934545 343.424721 
L 481.876364 343.669381 
L 481.876364 343.578117 
L 481.876364 341.311304 
L 477.818182 341.576634 
L 477.818182 341.468738 
L 477.818182 339.955701 
L 473.76 340.23541 
L 473.76 340.145612 
L 473.76 335.99662 
L 469.701818 336.312761 
L 469.701818 336.234912 
L 469.701818 334.97956 
L 465.643636 335.307613 
L 465.643636 335.224049 
L 465.643636 333.182107 
L 461.585455 333.52875 
L 461.585455 333.435196 
L 461.585455 330.764769 
L 457.527273 331.135281 
L 457.527273 331.027606 
L 457.527273 328.123636 
L 453.469091 328.519939 
L 453.469091 328.457872 
L 453.469091 321.893333 
L 449.410909 322.343746 
L 449.410909 322.260531 
L 449.410909 312.376702 
L 445.352727 312.903348 
L 445.352727 312.66 
L 441.294545 313.19067 
L 441.294545 312.203077 
L 437.236364 312.74326 
L 437.236364 305.260249 
L 433.178182 305.856 
L 433.178182 302.337309 
L 429.12 302.96 
L 429.12 298.458305 
L 425.061818 299.114108 
L 425.061818 286.149262 
L 416.945455 287.63027 
L 416.945455 285.650657 
L 412.887273 286.41 
L 412.887273 282.803478 
L 408.829091 283.588364 
L 408.829091 282.322362 
L 404.770909 283.12 
L 404.770909 280.824639 
L 400.712727 281.640916 
L 400.712727 278.520474 
L 392.596364 280.206215 
L 392.596364 267.643636 
L 388.538182 268.56 
L 388.538182 266.684651 
L 384.48 267.617944 
L 384.48 258.274286 
L 380.421818 259.255385 
L 380.421818 257.535 
L 376.363636 258.532775 
L 376.363636 253.052308 
L 368.247273 255.12 
L 368.247273 253.836404 
L 364.189091 254.892203 
L 364.189091 254.241818 
L 360.130909 255.312 
L 360.130909 254.656552 
L 352.014545 256.83907 
L 352.014545 255.515294 
L 347.956364 256.631006 
L 347.956364 252.481472 
L 343.898182 253.626667 
L 343.898182 249.940892 
L 339.84 251.113846 
L 339.84 241.26 
L 331.723636 243.71493 
L 331.723636 241.003165 
L 323.607273 243.543942 
L 323.607273 234.6975 
L 319.549091 236.018268 
L 319.549091 233.8848 
L 315.490909 235.230968 
L 315.490909 224.733913 
L 311.432727 226.117895 
L 311.432727 219.547156 
L 303.316364 222.399252 
L 303.316364 219.6 
L 295.2 222.563883 
L 295.2 213.483711 
L 291.141818 215.01 
L 291.141818 213.385263 
L 287.083636 214.942979 
L 287.083636 213.282581 
L 283.025455 214.873043 
L 283.025455 211.44 
L 278.967273 213.063371 
L 278.967273 207.611163 
L 266.792727 212.69494 
L 262.734545 214.472195 
L 262.734545 202.244211 
L 258.676364 204.048 
L 258.676364 166.107541 
L 254.618182 167.76 
L 254.618182 164.343051 
L 250.56 166.022069 
L 250.56 142.56 
L 242.443636 145.584 
L 242.443636 141.017143 
L 238.385455 142.56 
L 238.385455 137.734468 
L 234.327273 139.273043 
L 234.327273 134.16 
L 230.269091 135.687273 
L 230.269091 130.253023 
L 222.152727 133.340488 
L 214.036364 136.744615 
L 214.036364 124.170811 
L 205.92 127.44 
L 197.803636 131.105455 
L 193.745455 133.11 
L 193.745455 125.489032 
L 189.687273 127.44 
L 189.687273 119.097931 
L 185.629091 120.96 
L 181.570909 122.96 
L 177.512727 125.113846 
L 173.454545 127.44 
L 169.396364 129.96 
L 169.396364 119.551304 
L 165.338182 121.941818 
L 161.28 124.56 
L 157.221818 127.44 
L 157.221818 114.707368 
L 153.163636 117.36 
L 149.105455 120.324706 
L 145.047273 123.66 
L 140.989091 127.44 
L 140.989091 110.16 
L 136.930909 113.483077 
L 132.872727 117.36 
L 128.814545 121.941818 
L 128.814545 97.2 
L 124.756364 100.56 
L 120.698182 104.76 
L 116.64 110.16 
L 112.581818 117.36 
L 108.523636 127.44 
L 104.465455 142.56 
L 100.407273 167.76 
L 100.407273 66.96 
L 92.290909 66.96 
L 92.290909 66.96 
" clip-path="url(#pca36a5166e)" style="fill: none; stroke: #4c72b0; stroke-width: 1.5; stroke-linecap: round"/>
   </g>
   <g id="line2d_14">
    <path d="M 498.109091 359.28 
L 498.109091 355.482074 
L 494.050909 355.614545 
L 494.050909 355.506414 
L 494.050909 355.104 
L 489.992727 355.241277 
L 489.992727 355.132828 
L 489.992727 349.281951 
L 485.934545 349.473356 
L 485.934545 349.364908 
L 485.934545 341.817465 
L 481.876364 342.075789 
L 481.876364 341.97283 
L 481.876364 341.921059 
L 477.818182 342.181192 
L 477.818182 342.077949 
L 477.818182 342 
L 473.76 342.262193 
L 473.76 342.158469 
L 473.76 339.501176 
L 469.701818 339.78776 
L 469.701818 339.694177 
L 469.701818 337.902282 
L 465.643636 338.205689 
L 465.643636 338.100674 
L 465.643636 334.321209 
L 461.585455 334.658361 
L 461.585455 334.570619 
L 461.585455 334.26 
L 457.527273 334.601379 
L 457.527273 334.512369 
L 457.527273 331.872397 
L 453.469091 332.237793 
L 453.469091 332.135104 
L 453.469091 330.966847 
L 449.410909 331.344 
L 449.410909 331.235072 
L 449.410909 327.386498 
L 445.352727 327.797915 
L 445.352727 327.732152 
L 445.352727 317.875068 
L 441.294545 318.367059 
L 441.294545 318.266876 
L 441.294545 312.077181 
L 437.236364 312.618278 
L 437.236364 311.337427 
L 433.178182 311.890317 
L 433.178182 308.151325 
L 429.12 308.733913 
L 429.12 305.978182 
L 425.061818 306.583291 
L 425.061818 304.952727 
L 421.003636 305.5725 
L 421.003636 301.695912 
L 416.945455 302.34615 
L 416.945455 300.632727 
L 412.887273 301.298462 
L 412.887273 296.079018 
L 408.829091 296.784 
L 408.829091 293.76 
L 404.770909 294.48926 
L 404.770909 294.247742 
L 400.712727 294.983301 
L 400.712727 290.38268 
L 396.654545 291.153103 
L 396.654545 290.33561 
L 392.596364 291.116643 
L 392.596364 279.8496 
L 388.538182 280.704578 
L 388.538182 279.986721 
L 384.48 280.852683 
L 384.48 277.102373 
L 376.363636 278.898462 
L 376.363636 277.723636 
L 372.305455 278.64 
L 372.305455 277.034336 
L 360.130909 279.860448 
L 360.130909 279.457297 
L 356.072727 280.418824 
L 356.072727 279.606575 
L 352.014545 280.582018 
L 352.014545 279.76 
L 343.898182 281.748785 
L 343.898182 280.922264 
L 339.84 281.936303 
L 339.84 281.099713 
L 335.781818 282.129231 
L 335.781818 281.707826 
L 331.723636 282.750291 
L 331.723636 281.035248 
L 323.607273 283.176 
L 323.607273 282.305455 
L 319.549091 283.398579 
L 319.549091 282.96 
L 315.490909 284.067692 
L 315.490909 283.183834 
L 311.432727 284.31 
L 311.432727 283.414737 
L 307.374545 284.56 
L 307.374545 281.779672 
L 303.316364 282.96 
L 303.316364 280.014545 
L 299.258182 281.232 
L 299.258182 268.56 
L 291.141818 271.230199 
L 291.141818 270.576 
L 287.083636 271.94255 
L 287.083636 271.284324 
L 278.967273 274.083288 
L 278.967273 267.824234 
L 274.909091 269.301176 
L 274.909091 268.56 
L 266.792727 271.591579 
L 266.792727 270.098931 
L 262.734545 271.661538 
L 262.734545 264.394711 
L 254.618182 267.712941 
L 254.618182 262.315752 
L 250.56 264.06 
L 250.56 259.139439 
L 246.501818 260.952453 
L 246.501818 256.701176 
L 234.327273 262.450909 
L 234.327273 243.36 
L 230.269091 245.485301 
L 230.269091 242.426667 
L 226.210909 244.62 
L 226.210909 232.65863 
L 222.152727 234.96 
L 222.152727 224.930149 
L 218.094545 227.323636 
L 218.094545 169.904681 
L 214.036364 172.142609 
L 214.036364 167.76 
L 209.978182 170.050909 
L 209.978182 165.415814 
L 201.861818 170.218537 
L 197.803636 172.8 
L 197.803636 162.454737 
L 193.745455 165.035676 
L 193.745455 140.269091 
L 189.687273 142.56 
L 185.629091 144.99871 
L 181.570909 147.6 
L 181.570909 103.248 
L 177.512727 104.76 
L 173.454545 106.403478 
L 173.454545 94.450909 
L 169.396364 95.76 
L 165.338182 97.2 
L 161.28 98.791579 
L 157.221818 100.56 
L 153.163636 102.536471 
L 149.105455 104.76 
L 145.047273 107.28 
L 140.989091 110.16 
L 136.930909 113.483077 
L 136.930909 92.16 
L 132.872727 94.450909 
L 128.814545 97.2 
L 124.756364 100.56 
L 120.698182 104.76 
L 116.64 110.16 
L 112.581818 117.36 
L 108.523636 127.44 
L 104.465455 142.56 
L 104.465455 66.96 
L 92.290909 66.96 
L 92.290909 66.96 
" clip-path="url(#pca36a5166e)" style="fill: none; stroke: #dd8452; stroke-width: 1.5; stroke-linecap: round"/>
   </g>
   <g id="line2d_15">
    <path d="M 498.109091 359.28 
L 489.992727 354.980961 
L 489.992727 353.486834 
L 485.934545 353.55569 
L 485.934545 353.470076 
L 485.934545 345.017427 
L 481.876364 345.248372 
L 481.876364 345.168 
L 481.876364 342.455088 
L 477.818182 342.685905 
L 477.818182 342.586468 
L 477.818182 338.733134 
L 473.76 339.02318 
L 473.76 338.925739 
L 473.76 338.259781 
L 469.701818 338.556933 
L 469.701818 338.455385 
L 469.701818 336.428852 
L 465.643636 336.74476 
L 465.643636 336.668108 
L 465.643636 333.783529 
L 461.585455 334.125173 
L 461.585455 334.034711 
L 461.585455 333.621818 
L 449.410909 334.574118 
L 449.410909 326.507826 
L 445.352727 326.926452 
L 445.352727 326.8579 
L 445.352727 326.72013 
L 441.294545 327.141818 
L 441.294545 327.073171 
L 441.294545 325.355939 
L 437.236364 325.793898 
L 437.236364 325.719932 
L 437.236364 325.346301 
L 433.178182 325.789503 
L 433.178182 325.714639 
L 433.178182 321.791461 
L 429.12 322.269568 
L 429.12 322.181053 
L 429.12 319.361594 
L 425.061818 319.865389 
L 425.061818 319.7664 
L 425.061818 309.319322 
L 421.003636 309.907573 
L 421.003636 304.215319 
L 416.945455 304.848 
L 416.945455 302.34615 
L 412.887273 303 
L 412.887273 297.185982 
L 408.829091 297.883636 
L 408.829091 297.006626 
L 404.770909 297.714462 
L 404.770909 291.484415 
L 400.712727 292.237852 
L 400.712727 286.985806 
L 396.654545 287.777266 
L 396.654545 278.275663 
L 392.596364 279.127742 
L 392.596364 276.506888 
L 388.538182 277.38 
L 388.538182 276.607059 
L 384.48 277.491646 
L 384.48 277.102373 
L 380.421818 277.996596 
L 380.421818 276.815172 
L 376.363636 277.723636 
L 376.363636 274.436233 
L 372.305455 275.370811 
L 372.305455 269.044615 
L 368.247273 270.02087 
L 368.247273 268.56 
L 364.189091 269.553103 
L 364.189091 268.56 
L 360.130909 269.568 
L 360.130909 267.531429 
L 356.072727 268.56 
L 356.072727 267.51544 
L 352.014545 268.56 
L 352.014545 265.308387 
L 347.956364 266.380541 
L 347.956364 253.898182 
L 343.898182 255.038049 
L 343.898182 253.626667 
L 339.84 254.786087 
L 339.84 251.867006 
L 335.781818 253.052308 
L 335.781818 251.541818 
L 319.549091 256.464 
L 319.549091 254.938378 
L 315.490909 256.217143 
L 315.490909 250.56 
L 311.432727 251.880863 
L 311.432727 247.497313 
L 307.374545 248.854737 
L 307.374545 245.11814 
L 299.258182 247.92378 
L 299.258182 242.946885 
L 295.2 244.401322 
L 295.2 235.55469 
L 287.083636 238.592432 
L 287.083636 231.12 
L 283.025455 231.37165 
L 283.025455 224.331429 
L 278.967273 225.953814 
L 278.967273 218.16 
L 274.909091 219.821538 
L 274.909091 194.898462 
L 270.850909 196.56 
L 270.850909 189.554595 
L 266.792727 191.233973 
L 266.792727 183.6 
L 262.734545 185.290435 
L 262.734545 182.583529 
L 254.618182 186.087273 
L 250.56 187.92 
L 250.56 162.454737 
L 246.501818 164.16 
L 246.501818 160.429091 
L 242.443636 162.16 
L 242.443636 158.250566 
L 238.385455 160.006154 
L 238.385455 155.901176 
L 230.269091 159.531429 
L 222.152727 163.470638 
L 218.094545 161.04 
L 218.094545 146.16 
L 214.036364 148.091707 
L 214.036364 136.744615 
L 205.92 140.516757 
L 205.92 134.16 
L 201.861818 136.08 
L 201.861818 129.218824 
L 193.745455 133.11 
L 189.687273 135.243871 
L 185.629091 137.52 
L 185.629091 129.525517 
L 181.570909 131.76 
L 177.512727 134.16 
L 173.454545 136.744615 
L 169.396364 139.536 
L 169.396364 119.551304 
L 165.338182 121.941818 
L 161.28 124.56 
L 157.221818 127.44 
L 153.163636 130.623158 
L 149.105455 134.16 
L 145.047273 138.112941 
L 140.989091 142.56 
L 136.930909 147.6 
L 132.872727 153.36 
L 128.814545 160.006154 
L 124.756364 167.76 
L 120.698182 176.923636 
L 120.698182 157.68 
L 116.64 167.76 
L 112.581818 180.36 
L 108.523636 196.56 
L 108.523636 167.76 
L 104.465455 187.92 
L 100.407273 218.16 
L 100.407273 167.76 
L 96.349091 218.16 
L 96.349091 66.96 
L 92.290909 66.96 
L 92.290909 66.96 
" clip-path="url(#pca36a5166e)" style="fill: none; stroke: #55a868; stroke-width: 1.5; stroke-linecap: round"/>
   </g>
   <g id="line2d_16">
    <path d="M 498.109091 359.28 
L 498.109091 358.993185 
L 494.050909 359.01886 
L 494.050909 358.917865 
L 494.050909 358.833418 
L 489.992727 358.917717 
L 489.992727 358.877085 
L 489.992727 355.381132 
L 485.934545 355.425178 
L 485.934545 355.331879 
L 485.934545 340.714688 
L 481.876364 340.982287 
L 481.876364 340.898824 
L 481.876364 339.947234 
L 477.818182 340.224097 
L 477.818182 340.135178 
L 477.818182 340.105418 
L 473.76 340.383853 
L 473.76 340.324658 
L 473.76 338.29377 
L 465.643636 338.888149 
L 465.643636 338.787692 
L 465.643636 336.782951 
L 461.585455 337.099273 
L 461.585455 337.023455 
L 461.585455 334.526582 
L 457.527273 334.865703 
L 457.527273 334.778043 
L 457.527273 333.407556 
L 453.469091 333.76 
L 453.469091 333.66557 
L 453.469091 332.642947 
L 449.410909 333.005902 
L 449.410909 332.906301 
L 449.410909 331.720396 
L 445.352727 332.095411 
L 445.352727 331.989545 
L 445.352727 331.883077 
L 441.294545 332.260999 
L 441.294545 332.15485 
L 441.294545 330.252632 
L 437.236364 330.649157 
L 437.236364 329.446957 
L 433.178182 329.855179 
L 433.178182 329.793645 
L 433.178182 328.71744 
L 429.12 329.136923 
L 429.12 329.07236 
L 429.12 328.281113 
L 425.061818 328.642759 
L 425.061818 328.575789 
L 425.061818 328.5086 
L 421.003636 328.940198 
L 421.003636 328.873388 
L 421.003636 322.881063 
L 416.945455 323.367605 
L 416.945455 323.28 
L 416.945455 322.747283 
L 408.829091 323.736789 
L 408.829091 323.648372 
L 408.829091 321.320896 
L 404.770909 321.84 
L 404.770909 321.742822 
L 404.770909 321.448889 
L 396.654545 322.500496 
L 396.654545 322.403478 
L 396.654545 318.047783 
L 392.596364 318.617143 
L 392.596364 317.439814 
L 388.538182 318.022326 
L 388.538182 315.909153 
L 384.48 316.513398 
L 384.48 313.67509 
L 380.421818 314.307692 
L 380.421818 313.592727 
L 376.363636 314.235 
L 376.363636 312.456774 
L 372.305455 313.118491 
L 372.305455 311.076201 
L 368.247273 311.76 
L 368.247273 310.270345 
L 364.189091 310.971527 
L 364.189091 310.117895 
L 360.130909 310.830968 
L 360.130909 310.311479 
L 356.072727 311.033591 
L 356.072727 310.509701 
L 352.014545 311.241081 
L 352.014545 305.486733 
L 347.956364 306.276556 
L 347.956364 301.076129 
L 343.898182 301.918273 
L 343.898182 298.071787 
L 339.84 298.953893 
L 339.84 284.743486 
L 335.781818 285.747097 
L 335.781818 283.369479 
L 331.723636 284.4 
L 331.723636 279.703719 
L 327.665455 280.778182 
L 327.665455 277.531728 
L 323.607273 278.64 
L 323.607273 266.76 
L 319.549091 267.956407 
L 319.549091 262.85434 
L 315.490909 264.094177 
L 315.490909 260.654118 
L 307.374545 263.219603 
L 307.374545 261.068108 
L 295.2 265.084138 
L 295.2 260.583022 
L 283.025455 264.854118 
L 283.025455 259.183256 
L 278.967273 260.685 
L 278.967273 254.398017 
L 274.909091 255.007059 
L 274.909091 252.049655 
L 270.850909 253.65913 
L 270.850909 249.48973 
L 266.792727 251.149091 
L 266.792727 238.014545 
L 262.734545 238.423918 
L 262.734545 225.032727 
L 258.676364 226.849655 
L 258.676364 212.418228 
L 250.56 216.196364 
L 246.501818 218.16 
L 246.501818 202.82087 
L 242.443636 204.818824 
L 242.443636 199.832727 
L 238.385455 201.876923 
L 238.385455 196.56 
L 234.327273 198.650323 
L 234.327273 183.675789 
L 230.269091 185.76 
L 230.269091 182.421818 
L 226.210909 184.56 
L 226.210909 177.452308 
L 222.152727 179.618824 
L 222.152727 154.32 
L 214.036364 158.383256 
L 205.92 162.842927 
L 205.92 157.68 
L 197.803636 162.454737 
L 197.803636 138.112941 
L 193.745455 140.269091 
L 189.687273 142.56 
L 185.629091 144.99871 
L 181.570909 147.6 
L 177.512727 150.38069 
L 177.512727 142.56 
L 173.454545 145.36 
L 169.396364 148.375385 
L 169.396364 139.536 
L 165.338182 142.56 
L 161.28 145.846957 
L 157.221818 149.432727 
L 153.163636 153.36 
L 149.105455 146.538947 
L 145.047273 150.96 
L 145.047273 138.112941 
L 140.989091 142.56 
L 140.989091 127.44 
L 136.930909 131.76 
L 132.872727 136.744615 
L 128.814545 142.56 
L 124.756364 149.432727 
L 120.698182 157.68 
L 116.64 167.76 
L 112.581818 180.36 
L 108.523636 196.56 
L 104.465455 218.16 
L 100.407273 248.4 
L 96.349091 293.76 
L 92.290909 369.36 
L 92.290909 369.36 
L 92.290909 66.96 
L 92.290909 66.96 
" clip-path="url(#pca36a5166e)" style="fill: none; stroke: #c44e52; stroke-width: 1.5; stroke-linecap: round"/>
   </g>
   <g id="line2d_17">
    <path d="M 498.109091 359.28 
L 498.109091 358.501831 
L 494.050909 358.591079 
L 494.050909 358.481512 
L 494.050909 353.290435 
L 489.992727 353.444211 
L 489.992727 353.340973 
L 489.992727 352.950698 
L 485.934545 353.109141 
L 485.934545 353.000379 
L 485.934545 342.073674 
L 481.876364 342.329832 
L 481.876364 342.228785 
L 481.876364 341.256999 
L 477.818182 341.522791 
L 477.818182 341.414475 
L 477.818182 341.332683 
L 473.76 341.600625 
L 473.76 341.491765 
L 473.76 338.054273 
L 469.701818 338.353164 
L 469.701818 338.250265 
L 469.701818 336.156694 
L 465.643636 336.474894 
L 465.643636 336.396967 
L 465.643636 334.627416 
L 461.585455 334.962 
L 461.585455 334.875789 
L 461.585455 334.658361 
L 457.527273 334.996364 
L 457.527273 334.909367 
L 457.527273 330.312654 
L 453.469091 330.691034 
L 453.469091 330.579597 
L 453.469091 328.766335 
L 449.410909 329.161813 
L 449.410909 329.100998 
L 449.410909 321.411892 
L 445.352727 321.871191 
L 445.352727 321.785316 
L 445.352727 321.525818 
L 441.294545 321.989508 
L 441.294545 321.903066 
L 441.294545 320.198563 
L 437.236364 320.678182 
L 437.236364 320.585806 
L 437.236364 316.142609 
L 433.178182 316.659585 
L 433.178182 316.550021 
L 433.178182 313.285828 
L 425.061818 314.378182 
L 425.061818 314.01 
L 421.003636 314.562685 
L 421.003636 313.942805 
L 416.945455 314.502857 
L 416.945455 313.099535 
L 412.887273 313.673287 
L 412.887273 311.375534 
L 408.829091 311.970219 
L 408.829091 310.975842 
L 404.770909 311.58134 
L 404.770909 309.192558 
L 400.712727 309.820104 
L 400.712727 299.926767 
L 392.596364 301.342979 
L 392.596364 298.990189 
L 388.538182 299.722145 
L 388.538182 298.606154 
L 384.48 299.350997 
L 384.48 288.118209 
L 380.421818 288.946517 
L 380.421818 288.032727 
L 376.363636 288.873308 
L 376.363636 283.31122 
L 372.305455 284.194286 
L 372.305455 282.780747 
L 368.247273 283.68 
L 368.247273 281.105923 
L 364.189091 282.028966 
L 364.189091 280.496842 
L 360.130909 281.437533 
L 360.130909 280.656 
L 356.072727 281.61 
L 356.072727 277.509533 
L 352.014545 278.498028 
L 352.014545 275.410485 
L 347.956364 276.427317 
L 347.956364 274.57791 
L 343.898182 275.616 
L 343.898182 274.669091 
L 339.84 275.723452 
L 339.84 273.782798 
L 335.781818 274.86 
L 335.781818 267.996872 
L 331.723636 269.126292 
L 331.723636 259.902331 
L 327.665455 261.093333 
L 327.665455 260.42087 
L 323.607273 261.63 
L 323.607273 260.266329 
L 319.549091 261.49758 
L 319.549091 257.211656 
L 315.490909 258.48 
L 315.490909 249.705324 
L 311.432727 251.029565 
L 311.432727 249.289412 
L 307.374545 250.64 
L 307.374545 246.073846 
L 303.316364 247.462326 
L 303.316364 244.56 
L 299.258182 245.9808 
L 299.258182 243.974634 
L 295.2 245.425574 
L 295.2 244.401322 
L 291.141818 245.88 
L 291.141818 243.787119 
L 283.025455 246.835862 
L 283.025455 238.967339 
L 278.967273 240.56 
L 278.967273 231.633267 
L 274.909091 233.28 
L 274.909091 212.946207 
L 270.850909 214.643721 
L 270.850909 203.04 
L 262.734545 206.529231 
L 262.734545 204.414545 
L 258.676364 206.223158 
L 258.676364 204.048 
L 250.56 207.803836 
L 246.501818 209.76 
L 246.501818 205.2 
L 242.443636 207.203478 
L 242.443636 202.362985 
L 234.327273 206.529231 
L 230.269091 208.71 
L 230.269091 206.16 
L 222.152727 210.723934 
L 222.152727 199.591579 
L 218.094545 201.96 
L 218.094545 192.484528 
L 209.978182 197.407059 
L 209.978182 190.388571 
L 205.92 192.96 
L 205.92 189.206809 
L 201.861818 191.864348 
L 201.861818 183.796364 
L 197.803636 186.513488 
L 197.803636 182.16 
L 193.745455 184.969756 
L 189.687273 187.92 
L 189.687273 183.267692 
L 185.629091 186.328421 
L 181.570909 189.554595 
L 177.512727 192.96 
L 177.512727 164.508387 
L 173.454545 167.76 
L 173.454545 145.36 
L 169.396364 148.375385 
L 165.338182 151.632 
L 161.28 155.16 
L 157.221818 158.994783 
L 157.221818 138.96 
L 153.163636 142.56 
L 153.163636 130.623158 
L 149.105455 134.16 
L 145.047273 138.112941 
L 140.989091 142.56 
L 136.930909 147.6 
L 132.872727 153.36 
L 128.814545 160.006154 
L 124.756364 167.76 
L 120.698182 176.923636 
L 116.64 187.92 
L 112.581818 201.36 
L 108.523636 218.16 
L 104.465455 239.76 
L 104.465455 142.56 
L 100.407273 167.76 
L 96.349091 218.16 
L 92.290909 369.36 
L 92.290909 66.96 
L 92.290909 66.96 
" clip-path="url(#pca36a5166e)" style="fill: none; stroke: #8172b3; stroke-width: 1.5; stroke-linecap: round"/>
   </g>
   <g id="line2d_18">
    <path d="M 72 359.28 
L 518.4 359.28 
" clip-path="url(#pca36a5166e)" style="fill: none; stroke-dasharray: 5.55,2.4; stroke-dashoffset: 0; stroke: #c44e52; stroke-width: 1.5"/>
   </g>
   <g id="patch_3">
    <path d="M 72 384.48 
L 72 51.84 
" style="fill: none; stroke: #ffffff; stroke-width: 1.25; stroke-linejoin: miter; stroke-linecap: square"/>
   </g>
   <g id="patch_4">
    <path d="M 518.4 384.48 
L 518.4 51.84 
" style="fill: none; stroke: #ffffff; stroke-width: 1.25; stroke-linejoin: miter; stroke-linecap: square"/>
   </g>
   <g id="patch_5">
    <path d="M 72 384.48 
L 518.4 384.48 
" style="fill: none; stroke: #ffffff; stroke-width: 1.25; stroke-linejoin: miter; stroke-linecap: square"/>
   </g>
   <g id="patch_6">
    <path d="M 72 51.84 
L 518.4 51.84 
" style="fill: none; stroke: #ffffff; stroke-width: 1.25; stroke-linejoin: miter; stroke-linecap: square"/>
   </g>
   <g id="text_15">
    <!-- Precision-Recall Curve -->
    <g style="fill: #262626" transform="translate(234.182812 45.84) scale(0.12 -0.12)">
     <defs>
      <path id="ArialMT-2d" d="M 203 1375 
L 203 1941 
L 1931 1941 
L 1931 1375 
L 203 1375 
z
" transform="scale(0.015625)"/>
      <path id="ArialMT-20" transform="scale(0.015625)"/>
      <path id="ArialMT-43" d="M 3763 1606 
L 4369 1453 
Q 4178 706 3683 314 
Q 3188 -78 2472 -78 
Q 1731 -78 1267 223 
Q 803 525 561 1097 
Q 319 1669 319 2325 
Q 319 3041 592 3573 
Q 866 4106 1370 4382 
Q 1875 4659 2481 4659 
Q 3169 4659 3637 4309 
Q 4106 3959 4291 3325 
L 3694 3184 
Q 3534 3684 3231 3912 
Q 2928 4141 2469 4141 
Q 1941 4141 1586 3887 
Q 1231 3634 1087 3207 
Q 944 2781 944 2328 
Q 944 1744 1114 1308 
Q 1284 872 1643 656 
Q 2003 441 2422 441 
Q 2931 441 3284 734 
Q 3638 1028 3763 1606 
z
" transform="scale(0.015625)"/>
      <path id="ArialMT-75" d="M 2597 0 
L 2597 488 
Q 2209 -75 1544 -75 
Q 1250 -75 995 37 
Q 741 150 617 320 
Q 494 491 444 738 
Q 409 903 409 1263 
L 409 3319 
L 972 3319 
L 972 1478 
Q 972 1038 1006 884 
Q 1059 663 1231 536 
Q 1403 409 1656 409 
Q 1909 409 2131 539 
Q 2353 669 2445 892 
Q 2538 1116 2538 1541 
L 2538 3319 
L 3100 3319 
L 3100 0 
L 2597 0 
z
" transform="scale(0.015625)"/>
      <path id="ArialMT-76" d="M 1344 0 
L 81 3319 
L 675 3319 
L 1388 1331 
Q 1503 1009 1600 663 
Q 1675 925 1809 1294 
L 2547 3319 
L 3125 3319 
L 1869 0 
L 1344 0 
z
" transform="scale(0.015625)"/>
     </defs>
     <use xlink:href="#ArialMT-50"/>
     <use xlink:href="#ArialMT-72" x="66.699219"/>
     <use xlink:href="#ArialMT-65" x="100"/>
     <use xlink:href="#ArialMT-63" x="155.615234"/>
     <use xlink:href="#ArialMT-69" x="205.615234"/>
     <use xlink:href="#ArialMT-73" x="227.832031"/>
     <use xlink:href="#ArialMT-69" x="277.832031"/>
     <use xlink:href="#ArialMT-6f" x="300.048828"/>
     <use xlink:href="#ArialMT-6e" x="355.664062"/>
     <use xlink:href="#ArialMT-2d" x="411.279297"/>
     <use xlink:href="#ArialMT-52" x="444.580078"/>
     <use xlink:href="#ArialMT-65" x="516.796875"/>
     <use xlink:href="#ArialMT-63" x="572.412109"/>
     <use xlink:href="#ArialMT-61" x="622.412109"/>
     <use xlink:href="#ArialMT-6c" x="678.027344"/>
     <use xlink:href="#ArialMT-6c" x="700.244141"/>
     <use xlink:href="#ArialMT-20" x="722.460938"/>
     <use xlink:href="#ArialMT-43" x="750.244141"/>
     <use xlink:href="#ArialMT-75" x="822.460938"/>
     <use xlink:href="#ArialMT-72" x="878.076172"/>
     <use xlink:href="#ArialMT-76" x="911.376953"/>
     <use xlink:href="#ArialMT-65" x="961.376953"/>
    </g>
   </g>
   <g id="legend_1">
    <g id="patch_7">
     <path d="M 313.770781 138.965156 
L 510.7 138.965156 
Q 512.9 138.965156 512.9 136.765156 
L 512.9 59.54 
Q 512.9 57.34 510.7 57.34 
L 313.770781 57.34 
Q 311.570781 57.34 311.570781 59.54 
L 311.570781 136.765156 
Q 311.570781 138.965156 313.770781 138.965156 
z
" style="fill: #eaeaf2; opacity: 0.8; stroke: #cccccc; stroke-linejoin: miter"/>
    </g>
    <g id="line2d_19">
     <path d="M 315.970781 65.897656 
L 326.970781 65.897656 
L 337.970781 65.897656 
" style="fill: none; stroke: #4c72b0; stroke-width: 1.5; stroke-linecap: round"/>
    </g>
    <g id="text_16">
     <!-- LogisticRegression, AUC=0.5238 -->
     <g style="fill: #262626" transform="translate(346.770781 69.747656) scale(0.11 -0.11)">
      <defs>
       <path id="ArialMT-4c" d="M 469 0 
L 469 4581 
L 1075 4581 
L 1075 541 
L 3331 541 
L 3331 0 
L 469 0 
z
" transform="scale(0.015625)"/>
       <path id="ArialMT-67" d="M 319 -275 
L 866 -356 
Q 900 -609 1056 -725 
Q 1266 -881 1628 -881 
Q 2019 -881 2231 -725 
Q 2444 -569 2519 -288 
Q 2563 -116 2559 434 
Q 2191 0 1641 0 
Q 956 0 581 494 
Q 206 988 206 1678 
Q 206 2153 378 2554 
Q 550 2956 876 3175 
Q 1203 3394 1644 3394 
Q 2231 3394 2613 2919 
L 2613 3319 
L 3131 3319 
L 3131 450 
Q 3131 -325 2973 -648 
Q 2816 -972 2473 -1159 
Q 2131 -1347 1631 -1347 
Q 1038 -1347 672 -1080 
Q 306 -813 319 -275 
z
M 784 1719 
Q 784 1066 1043 766 
Q 1303 466 1694 466 
Q 2081 466 2343 764 
Q 2606 1063 2606 1700 
Q 2606 2309 2336 2618 
Q 2066 2928 1684 2928 
Q 1309 2928 1046 2623 
Q 784 2319 784 1719 
z
" transform="scale(0.015625)"/>
       <path id="ArialMT-74" d="M 1650 503 
L 1731 6 
Q 1494 -44 1306 -44 
Q 1000 -44 831 53 
Q 663 150 594 308 
Q 525 466 525 972 
L 525 2881 
L 113 2881 
L 113 3319 
L 525 3319 
L 525 4141 
L 1084 4478 
L 1084 3319 
L 1650 3319 
L 1650 2881 
L 1084 2881 
L 1084 941 
Q 1084 700 1114 631 
Q 1144 563 1211 522 
Q 1278 481 1403 481 
Q 1497 481 1650 503 
z
" transform="scale(0.015625)"/>
       <path id="ArialMT-2c" d="M 569 0 
L 569 641 
L 1209 641 
L 1209 0 
Q 1209 -353 1084 -570 
Q 959 -788 688 -906 
L 531 -666 
Q 709 -588 793 -436 
Q 878 -284 888 0 
L 569 0 
z
" transform="scale(0.015625)"/>
       <path id="ArialMT-41" d="M -9 0 
L 1750 4581 
L 2403 4581 
L 4278 0 
L 3588 0 
L 3053 1388 
L 1138 1388 
L 634 0 
L -9 0 
z
M 1313 1881 
L 2866 1881 
L 2388 3150 
Q 2169 3728 2063 4100 
Q 1975 3659 1816 3225 
L 1313 1881 
z
" transform="scale(0.015625)"/>
       <path id="ArialMT-55" d="M 3500 4581 
L 4106 4581 
L 4106 1934 
Q 4106 1244 3950 837 
Q 3794 431 3386 176 
Q 2978 -78 2316 -78 
Q 1672 -78 1262 144 
Q 853 366 678 786 
Q 503 1206 503 1934 
L 503 4581 
L 1109 4581 
L 1109 1938 
Q 1109 1341 1220 1058 
Q 1331 775 1601 622 
Q 1872 469 2263 469 
Q 2931 469 3215 772 
Q 3500 1075 3500 1938 
L 3500 4581 
z
" transform="scale(0.015625)"/>
       <path id="ArialMT-3d" d="M 3381 2694 
L 356 2694 
L 356 3219 
L 3381 3219 
L 3381 2694 
z
M 3381 1303 
L 356 1303 
L 356 1828 
L 3381 1828 
L 3381 1303 
z
" transform="scale(0.015625)"/>
       <path id="ArialMT-35" d="M 266 1200 
L 856 1250 
Q 922 819 1161 601 
Q 1400 384 1738 384 
Q 2144 384 2425 690 
Q 2706 997 2706 1503 
Q 2706 1984 2436 2262 
Q 2166 2541 1728 2541 
Q 1456 2541 1237 2417 
Q 1019 2294 894 2097 
L 366 2166 
L 809 4519 
L 3088 4519 
L 3088 3981 
L 1259 3981 
L 1013 2750 
Q 1425 3038 1878 3038 
Q 2478 3038 2890 2622 
Q 3303 2206 3303 1553 
Q 3303 931 2941 478 
Q 2500 -78 1738 -78 
Q 1113 -78 717 272 
Q 322 622 266 1200 
z
" transform="scale(0.015625)"/>
       <path id="ArialMT-33" d="M 269 1209 
L 831 1284 
Q 928 806 1161 595 
Q 1394 384 1728 384 
Q 2125 384 2398 659 
Q 2672 934 2672 1341 
Q 2672 1728 2419 1979 
Q 2166 2231 1775 2231 
Q 1616 2231 1378 2169 
L 1441 2663 
Q 1497 2656 1531 2656 
Q 1891 2656 2178 2843 
Q 2466 3031 2466 3422 
Q 2466 3731 2256 3934 
Q 2047 4138 1716 4138 
Q 1388 4138 1169 3931 
Q 950 3725 888 3313 
L 325 3413 
Q 428 3978 793 4289 
Q 1159 4600 1703 4600 
Q 2078 4600 2393 4439 
Q 2709 4278 2876 4000 
Q 3044 3722 3044 3409 
Q 3044 3113 2884 2869 
Q 2725 2625 2413 2481 
Q 2819 2388 3044 2092 
Q 3269 1797 3269 1353 
Q 3269 753 2831 336 
Q 2394 -81 1725 -81 
Q 1122 -81 723 278 
Q 325 638 269 1209 
z
" transform="scale(0.015625)"/>
      </defs>
      <use xlink:href="#ArialMT-4c"/>
      <use xlink:href="#ArialMT-6f" x="55.615234"/>
      <use xlink:href="#ArialMT-67" x="111.230469"/>
      <use xlink:href="#ArialMT-69" x="166.845703"/>
      <use xlink:href="#ArialMT-73" x="189.0625"/>
      <use xlink:href="#ArialMT-74" x="239.0625"/>
      <use xlink:href="#ArialMT-69" x="266.845703"/>
      <use xlink:href="#ArialMT-63" x="289.0625"/>
      <use xlink:href="#ArialMT-52" x="339.0625"/>
      <use xlink:href="#ArialMT-65" x="411.279297"/>
      <use xlink:href="#ArialMT-67" x="466.894531"/>
      <use xlink:href="#ArialMT-72" x="522.509766"/>
      <use xlink:href="#ArialMT-65" x="555.810547"/>
      <use xlink:href="#ArialMT-73" x="611.425781"/>
      <use xlink:href="#ArialMT-73" x="661.425781"/>
      <use xlink:href="#ArialMT-69" x="711.425781"/>
      <use xlink:href="#ArialMT-6f" x="733.642578"/>
      <use xlink:href="#ArialMT-6e" x="789.257812"/>
      <use xlink:href="#ArialMT-2c" x="844.873047"/>
      <use xlink:href="#ArialMT-20" x="872.65625"/>
      <use xlink:href="#ArialMT-41" x="894.939453"/>
      <use xlink:href="#ArialMT-55" x="961.638672"/>
      <use xlink:href="#ArialMT-43" x="1033.855469"/>
      <use xlink:href="#ArialMT-3d" x="1106.072266"/>
      <use xlink:href="#ArialMT-30" x="1164.470703"/>
      <use xlink:href="#ArialMT-2e" x="1220.085938"/>
      <use xlink:href="#ArialMT-35" x="1247.869141"/>
      <use xlink:href="#ArialMT-32" x="1303.484375"/>
      <use xlink:href="#ArialMT-33" x="1359.099609"/>
      <use xlink:href="#ArialMT-38" x="1414.714844"/>
     </g>
    </g>
    <g id="line2d_20">
     <path d="M 315.970781 81.586406 
L 326.970781 81.586406 
L 337.970781 81.586406 
" style="fill: none; stroke: #dd8452; stroke-width: 1.5; stroke-linecap: round"/>
    </g>
    <g id="text_17">
     <!-- SVM, AUC=0.4385 -->
     <g style="fill: #262626" transform="translate(346.770781 85.436406) scale(0.11 -0.11)">
      <defs>
       <path id="ArialMT-53" d="M 288 1472 
L 859 1522 
Q 900 1178 1048 958 
Q 1197 738 1509 602 
Q 1822 466 2213 466 
Q 2559 466 2825 569 
Q 3091 672 3220 851 
Q 3350 1031 3350 1244 
Q 3350 1459 3225 1620 
Q 3100 1781 2813 1891 
Q 2628 1963 1997 2114 
Q 1366 2266 1113 2400 
Q 784 2572 623 2826 
Q 463 3081 463 3397 
Q 463 3744 659 4045 
Q 856 4347 1234 4503 
Q 1613 4659 2075 4659 
Q 2584 4659 2973 4495 
Q 3363 4331 3572 4012 
Q 3781 3694 3797 3291 
L 3216 3247 
Q 3169 3681 2898 3903 
Q 2628 4125 2100 4125 
Q 1550 4125 1298 3923 
Q 1047 3722 1047 3438 
Q 1047 3191 1225 3031 
Q 1400 2872 2139 2705 
Q 2878 2538 3153 2413 
Q 3553 2228 3743 1945 
Q 3934 1663 3934 1294 
Q 3934 928 3725 604 
Q 3516 281 3123 101 
Q 2731 -78 2241 -78 
Q 1619 -78 1198 103 
Q 778 284 539 648 
Q 300 1013 288 1472 
z
" transform="scale(0.015625)"/>
       <path id="ArialMT-56" d="M 1803 0 
L 28 4581 
L 684 4581 
L 1875 1253 
Q 2019 853 2116 503 
Q 2222 878 2363 1253 
L 3600 4581 
L 4219 4581 
L 2425 0 
L 1803 0 
z
" transform="scale(0.015625)"/>
       <path id="ArialMT-4d" d="M 475 0 
L 475 4581 
L 1388 4581 
L 2472 1338 
Q 2622 884 2691 659 
Q 2769 909 2934 1394 
L 4031 4581 
L 4847 4581 
L 4847 0 
L 4263 0 
L 4263 3834 
L 2931 0 
L 2384 0 
L 1059 3900 
L 1059 0 
L 475 0 
z
" transform="scale(0.015625)"/>
      </defs>
      <use xlink:href="#ArialMT-53"/>
      <use xlink:href="#ArialMT-56" x="66.699219"/>
      <use xlink:href="#ArialMT-4d" x="133.398438"/>
      <use xlink:href="#ArialMT-2c" x="216.699219"/>
      <use xlink:href="#ArialMT-20" x="244.482422"/>
      <use xlink:href="#ArialMT-41" x="266.765625"/>
      <use xlink:href="#ArialMT-55" x="333.464844"/>
      <use xlink:href="#ArialMT-43" x="405.681641"/>
      <use xlink:href="#ArialMT-3d" x="477.898438"/>
      <use xlink:href="#ArialMT-30" x="536.296875"/>
      <use xlink:href="#ArialMT-2e" x="591.912109"/>
      <use xlink:href="#ArialMT-34" x="619.695312"/>
      <use xlink:href="#ArialMT-33" x="675.310547"/>
      <use xlink:href="#ArialMT-38" x="730.925781"/>
      <use xlink:href="#ArialMT-35" x="786.541016"/>
     </g>
    </g>
    <g id="line2d_21">
     <path d="M 315.970781 97.14625 
L 326.970781 97.14625 
L 337.970781 97.14625 
" style="fill: none; stroke: #55a868; stroke-width: 1.5; stroke-linecap: round"/>
    </g>
    <g id="text_18">
     <!-- RandomForest, AUC=0.4696 -->
     <g style="fill: #262626" transform="translate(346.770781 100.99625) scale(0.11 -0.11)">
      <defs>
       <path id="ArialMT-64" d="M 2575 0 
L 2575 419 
Q 2259 -75 1647 -75 
Q 1250 -75 917 144 
Q 584 363 401 755 
Q 219 1147 219 1656 
Q 219 2153 384 2558 
Q 550 2963 881 3178 
Q 1213 3394 1622 3394 
Q 1922 3394 2156 3267 
Q 2391 3141 2538 2938 
L 2538 4581 
L 3097 4581 
L 3097 0 
L 2575 0 
z
M 797 1656 
Q 797 1019 1065 703 
Q 1334 388 1700 388 
Q 2069 388 2326 689 
Q 2584 991 2584 1609 
Q 2584 2291 2321 2609 
Q 2059 2928 1675 2928 
Q 1300 2928 1048 2622 
Q 797 2316 797 1656 
z
" transform="scale(0.015625)"/>
       <path id="ArialMT-6d" d="M 422 0 
L 422 3319 
L 925 3319 
L 925 2853 
Q 1081 3097 1340 3245 
Q 1600 3394 1931 3394 
Q 2300 3394 2536 3241 
Q 2772 3088 2869 2813 
Q 3263 3394 3894 3394 
Q 4388 3394 4653 3120 
Q 4919 2847 4919 2278 
L 4919 0 
L 4359 0 
L 4359 2091 
Q 4359 2428 4304 2576 
Q 4250 2725 4106 2815 
Q 3963 2906 3769 2906 
Q 3419 2906 3187 2673 
Q 2956 2441 2956 1928 
L 2956 0 
L 2394 0 
L 2394 2156 
Q 2394 2531 2256 2718 
Q 2119 2906 1806 2906 
Q 1569 2906 1367 2781 
Q 1166 2656 1075 2415 
Q 984 2175 984 1722 
L 984 0 
L 422 0 
z
" transform="scale(0.015625)"/>
       <path id="ArialMT-46" d="M 525 0 
L 525 4581 
L 3616 4581 
L 3616 4041 
L 1131 4041 
L 1131 2622 
L 3281 2622 
L 3281 2081 
L 1131 2081 
L 1131 0 
L 525 0 
z
" transform="scale(0.015625)"/>
       <path id="ArialMT-39" d="M 350 1059 
L 891 1109 
Q 959 728 1153 556 
Q 1347 384 1650 384 
Q 1909 384 2104 503 
Q 2300 622 2425 820 
Q 2550 1019 2634 1356 
Q 2719 1694 2719 2044 
Q 2719 2081 2716 2156 
Q 2547 1888 2255 1720 
Q 1963 1553 1622 1553 
Q 1053 1553 659 1965 
Q 266 2378 266 3053 
Q 266 3750 677 4175 
Q 1088 4600 1706 4600 
Q 2153 4600 2523 4359 
Q 2894 4119 3086 3673 
Q 3278 3228 3278 2384 
Q 3278 1506 3087 986 
Q 2897 466 2520 194 
Q 2144 -78 1638 -78 
Q 1100 -78 759 220 
Q 419 519 350 1059 
z
M 2653 3081 
Q 2653 3566 2395 3850 
Q 2138 4134 1775 4134 
Q 1400 4134 1122 3828 
Q 844 3522 844 3034 
Q 844 2597 1108 2323 
Q 1372 2050 1759 2050 
Q 2150 2050 2401 2323 
Q 2653 2597 2653 3081 
z
" transform="scale(0.015625)"/>
      </defs>
      <use xlink:href="#ArialMT-52"/>
      <use xlink:href="#ArialMT-61" x="72.216797"/>
      <use xlink:href="#ArialMT-6e" x="127.832031"/>
      <use xlink:href="#ArialMT-64" x="183.447266"/>
      <use xlink:href="#ArialMT-6f" x="239.0625"/>
      <use xlink:href="#ArialMT-6d" x="294.677734"/>
      <use xlink:href="#ArialMT-46" x="377.978516"/>
      <use xlink:href="#ArialMT-6f" x="439.0625"/>
      <use xlink:href="#ArialMT-72" x="494.677734"/>
      <use xlink:href="#ArialMT-65" x="527.978516"/>
      <use xlink:href="#ArialMT-73" x="583.59375"/>
      <use xlink:href="#ArialMT-74" x="633.59375"/>
      <use xlink:href="#ArialMT-2c" x="661.376953"/>
      <use xlink:href="#ArialMT-20" x="689.160156"/>
      <use xlink:href="#ArialMT-41" x="711.443359"/>
      <use xlink:href="#ArialMT-55" x="778.142578"/>
      <use xlink:href="#ArialMT-43" x="850.359375"/>
      <use xlink:href="#ArialMT-3d" x="922.576172"/>
      <use xlink:href="#ArialMT-30" x="980.974609"/>
      <use xlink:href="#ArialMT-2e" x="1036.589844"/>
      <use xlink:href="#ArialMT-34" x="1064.373047"/>
      <use xlink:href="#ArialMT-36" x="1119.988281"/>
      <use xlink:href="#ArialMT-39" x="1175.603516"/>
      <use xlink:href="#ArialMT-36" x="1231.21875"/>
     </g>
    </g>
    <g id="line2d_22">
     <path d="M 315.970781 112.840156 
L 326.970781 112.840156 
L 337.970781 112.840156 
" style="fill: none; stroke: #c44e52; stroke-width: 1.5; stroke-linecap: round"/>
    </g>
    <g id="text_19">
     <!-- LightGBM, AUC=0.3946 -->
     <g style="fill: #262626" transform="translate(346.770781 116.690156) scale(0.11 -0.11)">
      <defs>
       <path id="ArialMT-68" d="M 422 0 
L 422 4581 
L 984 4581 
L 984 2938 
Q 1378 3394 1978 3394 
Q 2347 3394 2619 3248 
Q 2891 3103 3008 2847 
Q 3125 2591 3125 2103 
L 3125 0 
L 2563 0 
L 2563 2103 
Q 2563 2525 2380 2717 
Q 2197 2909 1863 2909 
Q 1613 2909 1392 2779 
Q 1172 2650 1078 2428 
Q 984 2206 984 1816 
L 984 0 
L 422 0 
z
" transform="scale(0.015625)"/>
       <path id="ArialMT-47" d="M 2638 1797 
L 2638 2334 
L 4578 2338 
L 4578 638 
Q 4131 281 3656 101 
Q 3181 -78 2681 -78 
Q 2006 -78 1454 211 
Q 903 500 622 1047 
Q 341 1594 341 2269 
Q 341 2938 620 3517 
Q 900 4097 1425 4378 
Q 1950 4659 2634 4659 
Q 3131 4659 3532 4498 
Q 3934 4338 4162 4050 
Q 4391 3763 4509 3300 
L 3963 3150 
Q 3859 3500 3706 3700 
Q 3553 3900 3268 4020 
Q 2984 4141 2638 4141 
Q 2222 4141 1919 4014 
Q 1616 3888 1430 3681 
Q 1244 3475 1141 3228 
Q 966 2803 966 2306 
Q 966 1694 1177 1281 
Q 1388 869 1791 669 
Q 2194 469 2647 469 
Q 3041 469 3416 620 
Q 3791 772 3984 944 
L 3984 1797 
L 2638 1797 
z
" transform="scale(0.015625)"/>
       <path id="ArialMT-42" d="M 469 0 
L 469 4581 
L 2188 4581 
Q 2713 4581 3030 4442 
Q 3347 4303 3526 4014 
Q 3706 3725 3706 3409 
Q 3706 3116 3547 2856 
Q 3388 2597 3066 2438 
Q 3481 2316 3704 2022 
Q 3928 1728 3928 1328 
Q 3928 1006 3792 729 
Q 3656 453 3456 303 
Q 3256 153 2954 76 
Q 2653 0 2216 0 
L 469 0 
z
M 1075 2656 
L 2066 2656 
Q 2469 2656 2644 2709 
Q 2875 2778 2992 2937 
Q 3109 3097 3109 3338 
Q 3109 3566 3000 3739 
Q 2891 3913 2687 3977 
Q 2484 4041 1991 4041 
L 1075 4041 
L 1075 2656 
z
M 1075 541 
L 2216 541 
Q 2509 541 2628 563 
Q 2838 600 2978 687 
Q 3119 775 3209 942 
Q 3300 1109 3300 1328 
Q 3300 1584 3169 1773 
Q 3038 1963 2805 2039 
Q 2572 2116 2134 2116 
L 1075 2116 
L 1075 541 
z
" transform="scale(0.015625)"/>
      </defs>
      <use xlink:href="#ArialMT-4c"/>
      <use xlink:href="#ArialMT-69" x="55.615234"/>
      <use xlink:href="#ArialMT-67" x="77.832031"/>
      <use xlink:href="#ArialMT-68" x="133.447266"/>
      <use xlink:href="#ArialMT-74" x="189.0625"/>
      <use xlink:href="#ArialMT-47" x="216.845703"/>
      <use xlink:href="#ArialMT-42" x="294.628906"/>
      <use xlink:href="#ArialMT-4d" x="361.328125"/>
      <use xlink:href="#ArialMT-2c" x="444.628906"/>
      <use xlink:href="#ArialMT-20" x="472.412109"/>
      <use xlink:href="#ArialMT-41" x="494.695312"/>
      <use xlink:href="#ArialMT-55" x="561.394531"/>
      <use xlink:href="#ArialMT-43" x="633.611328"/>
      <use xlink:href="#ArialMT-3d" x="705.828125"/>
      <use xlink:href="#ArialMT-30" x="764.226562"/>
      <use xlink:href="#ArialMT-2e" x="819.841797"/>
      <use xlink:href="#ArialMT-33" x="847.625"/>
      <use xlink:href="#ArialMT-39" x="903.240234"/>
      <use xlink:href="#ArialMT-34" x="958.855469"/>
      <use xlink:href="#ArialMT-36" x="1014.470703"/>
     </g>
    </g>
    <g id="line2d_23">
     <path d="M 315.970781 128.528906 
L 326.970781 128.528906 
L 337.970781 128.528906 
" style="fill: none; stroke: #8172b3; stroke-width: 1.5; stroke-linecap: round"/>
    </g>
    <g id="text_20">
     <!-- XGBoost, AUC=0.4097 -->
     <g style="fill: #262626" transform="translate(346.770781 132.378906) scale(0.11 -0.11)">
      <defs>
       <path id="ArialMT-58" d="M 28 0 
L 1800 2388 
L 238 4581 
L 959 4581 
L 1791 3406 
Q 2050 3041 2159 2844 
Q 2313 3094 2522 3366 
L 3444 4581 
L 4103 4581 
L 2494 2422 
L 4228 0 
L 3478 0 
L 2325 1634 
Q 2228 1775 2125 1941 
Q 1972 1691 1906 1597 
L 756 0 
L 28 0 
z
" transform="scale(0.015625)"/>
       <path id="ArialMT-37" d="M 303 3981 
L 303 4522 
L 3269 4522 
L 3269 4084 
Q 2831 3619 2401 2847 
Q 1972 2075 1738 1259 
Q 1569 684 1522 0 
L 944 0 
Q 953 541 1156 1306 
Q 1359 2072 1739 2783 
Q 2119 3494 2547 3981 
L 303 3981 
z
" transform="scale(0.015625)"/>
      </defs>
      <use xlink:href="#ArialMT-58"/>
      <use xlink:href="#ArialMT-47" x="66.699219"/>
      <use xlink:href="#ArialMT-42" x="144.482422"/>
      <use xlink:href="#ArialMT-6f" x="211.181641"/>
      <use xlink:href="#ArialMT-6f" x="266.796875"/>
      <use xlink:href="#ArialMT-73" x="322.412109"/>
      <use xlink:href="#ArialMT-74" x="372.412109"/>
      <use xlink:href="#ArialMT-2c" x="400.195312"/>
      <use xlink:href="#ArialMT-20" x="427.978516"/>
      <use xlink:href="#ArialMT-41" x="450.261719"/>
      <use xlink:href="#ArialMT-55" x="516.960938"/>
      <use xlink:href="#ArialMT-43" x="589.177734"/>
      <use xlink:href="#ArialMT-3d" x="661.394531"/>
      <use xlink:href="#ArialMT-30" x="719.792969"/>
      <use xlink:href="#ArialMT-2e" x="775.408203"/>
      <use xlink:href="#ArialMT-34" x="803.191406"/>
      <use xlink:href="#ArialMT-30" x="858.806641"/>
      <use xlink:href="#ArialMT-39" x="914.421875"/>
      <use xlink:href="#ArialMT-37" x="970.037109"/>
     </g>
    </g>
   </g>
  </g>
 </g>
 <defs>
  <clipPath id="pca36a5166e">
   <rect x="72" y="51.84" width="446.4" height="332.64"/>
  </clipPath>
 </defs>
</svg>
