<?xml version="1.0" encoding="utf-8" standalone="no"?>
<!DOCTYPE svg PUBLIC "-//W3C//DTD SVG 1.1//EN"
  "http://www.w3.org/Graphics/SVG/1.1/DTD/svg11.dtd">
<svg xmlns:xlink="http://www.w3.org/1999/xlink" width="576pt" height="432pt" viewBox="0 0 576 432" xmlns="http://www.w3.org/2000/svg" version="1.1">
 <metadata>
  <rdf:RDF xmlns:dc="http://purl.org/dc/elements/1.1/" xmlns:cc="http://creativecommons.org/ns#" xmlns:rdf="http://www.w3.org/1999/02/22-rdf-syntax-ns#">
   <cc:Work>
    <dc:type rdf:resource="http://purl.org/dc/dcmitype/StillImage"/>
    <dc:date>2022-12-03T21:56:46.239107</dc:date>
    <dc:format>image/svg+xml</dc:format>
    <dc:creator>
     <cc:Agent>
      <dc:title>Matplotlib v3.6.2, https://matplotlib.org/</dc:title>
     </cc:Agent>
    </dc:creator>
   </cc:Work>
  </rdf:RDF>
 </metadata>
 <defs>
  <style type="text/css">*{stroke-linejoin: round; stroke-linecap: butt}</style>
 </defs>
 <g id="figure_1">
  <g id="patch_1">
   <path d="M 0 432 
L 576 432 
L 576 0 
L 0 0 
z
" style="fill: #ffffff"/>
  </g>
  <g id="axes_1">
   <g id="patch_2">
    <path d="M 72 384.48 
L 518.4 384.48 
L 518.4 51.84 
L 72 51.84 
z
" style="fill: #eaeaf2"/>
   </g>
   <g id="matplotlib.axis_1">
    <g id="xtick_1">
     <g id="line2d_1">
      <path d="M 92.290909 384.48 
L 92.290909 51.84 
" clip-path="url(#p469afb7c60)" style="fill: none; stroke: #ffffff; stroke-linecap: round"/>
     </g>
     <g id="text_1">
      <!-- 0.0 -->
      <g style="fill: #262626" transform="translate(84.645909 401.853594) scale(0.11 -0.11)">
       <defs>
        <path id="ArialMT-30" d="M 266 2259 
Q 266 3072 433 3567 
Q 600 4063 929 4331 
Q 1259 4600 1759 4600 
Q 2128 4600 2406 4451 
Q 2684 4303 2865 4023 
Q 3047 3744 3150 3342 
Q 3253 2941 3253 2259 
Q 3253 1453 3087 958 
Q 2922 463 2592 192 
Q 2263 -78 1759 -78 
Q 1097 -78 719 397 
Q 266 969 266 2259 
z
M 844 2259 
Q 844 1131 1108 757 
Q 1372 384 1759 384 
Q 2147 384 2411 759 
Q 2675 1134 2675 2259 
Q 2675 3391 2411 3762 
Q 2147 4134 1753 4134 
Q 1366 4134 1134 3806 
Q 844 3388 844 2259 
z
" transform="scale(0.015625)"/>
        <path id="ArialMT-2e" d="M 581 0 
L 581 641 
L 1222 641 
L 1222 0 
L 581 0 
z
" transform="scale(0.015625)"/>
       </defs>
       <use xlink:href="#ArialMT-30"/>
       <use xlink:href="#ArialMT-2e" x="55.615234"/>
       <use xlink:href="#ArialMT-30" x="83.398438"/>
      </g>
     </g>
    </g>
    <g id="xtick_2">
     <g id="line2d_2">
      <path d="M 173.454545 384.48 
L 173.454545 51.84 
" clip-path="url(#p469afb7c60)" style="fill: none; stroke: #ffffff; stroke-linecap: round"/>
     </g>
     <g id="text_2">
      <!-- 0.2 -->
      <g style="fill: #262626" transform="translate(165.809545 401.853594) scale(0.11 -0.11)">
       <defs>
        <path id="ArialMT-32" d="M 3222 541 
L 3222 0 
L 194 0 
Q 188 203 259 391 
Q 375 700 629 1000 
Q 884 1300 1366 1694 
Q 2113 2306 2375 2664 
Q 2638 3022 2638 3341 
Q 2638 3675 2398 3904 
Q 2159 4134 1775 4134 
Q 1369 4134 1125 3890 
Q 881 3647 878 3216 
L 300 3275 
Q 359 3922 746 4261 
Q 1134 4600 1788 4600 
Q 2447 4600 2831 4234 
Q 3216 3869 3216 3328 
Q 3216 3053 3103 2787 
Q 2991 2522 2730 2228 
Q 2469 1934 1863 1422 
Q 1356 997 1212 845 
Q 1069 694 975 541 
L 3222 541 
z
" transform="scale(0.015625)"/>
       </defs>
       <use xlink:href="#ArialMT-30"/>
       <use xlink:href="#ArialMT-2e" x="55.615234"/>
       <use xlink:href="#ArialMT-32" x="83.398438"/>
      </g>
     </g>
    </g>
    <g id="xtick_3">
     <g id="line2d_3">
      <path d="M 254.618182 384.48 
L 254.618182 51.84 
" clip-path="url(#p469afb7c60)" style="fill: none; stroke: #ffffff; stroke-linecap: round"/>
     </g>
     <g id="text_3">
      <!-- 0.4 -->
      <g style="fill: #262626" transform="translate(246.973182 401.853594) scale(0.11 -0.11)">
       <defs>
        <path id="ArialMT-34" d="M 2069 0 
L 2069 1097 
L 81 1097 
L 81 1613 
L 2172 4581 
L 2631 4581 
L 2631 1613 
L 3250 1613 
L 3250 1097 
L 2631 1097 
L 2631 0 
L 2069 0 
z
M 2069 1613 
L 2069 3678 
L 634 1613 
L 2069 1613 
z
" transform="scale(0.015625)"/>
       </defs>
       <use xlink:href="#ArialMT-30"/>
       <use xlink:href="#ArialMT-2e" x="55.615234"/>
       <use xlink:href="#ArialMT-34" x="83.398438"/>
      </g>
     </g>
    </g>
    <g id="xtick_4">
     <g id="line2d_4">
      <path d="M 335.781818 384.48 
L 335.781818 51.84 
" clip-path="url(#p469afb7c60)" style="fill: none; stroke: #ffffff; stroke-linecap: round"/>
     </g>
     <g id="text_4">
      <!-- 0.6 -->
      <g style="fill: #262626" transform="translate(328.136818 401.853594) scale(0.11 -0.11)">
       <defs>
        <path id="ArialMT-36" d="M 3184 3459 
L 2625 3416 
Q 2550 3747 2413 3897 
Q 2184 4138 1850 4138 
Q 1581 4138 1378 3988 
Q 1113 3794 959 3422 
Q 806 3050 800 2363 
Q 1003 2672 1297 2822 
Q 1591 2972 1913 2972 
Q 2475 2972 2870 2558 
Q 3266 2144 3266 1488 
Q 3266 1056 3080 686 
Q 2894 316 2569 119 
Q 2244 -78 1831 -78 
Q 1128 -78 684 439 
Q 241 956 241 2144 
Q 241 3472 731 4075 
Q 1159 4600 1884 4600 
Q 2425 4600 2770 4297 
Q 3116 3994 3184 3459 
z
M 888 1484 
Q 888 1194 1011 928 
Q 1134 663 1356 523 
Q 1578 384 1822 384 
Q 2178 384 2434 671 
Q 2691 959 2691 1453 
Q 2691 1928 2437 2201 
Q 2184 2475 1800 2475 
Q 1419 2475 1153 2201 
Q 888 1928 888 1484 
z
" transform="scale(0.015625)"/>
       </defs>
       <use xlink:href="#ArialMT-30"/>
       <use xlink:href="#ArialMT-2e" x="55.615234"/>
       <use xlink:href="#ArialMT-36" x="83.398438"/>
      </g>
     </g>
    </g>
    <g id="xtick_5">
     <g id="line2d_5">
      <path d="M 416.945455 384.48 
L 416.945455 51.84 
" clip-path="url(#p469afb7c60)" style="fill: none; stroke: #ffffff; stroke-linecap: round"/>
     </g>
     <g id="text_5">
      <!-- 0.8 -->
      <g style="fill: #262626" transform="translate(409.300455 401.853594) scale(0.11 -0.11)">
       <defs>
        <path id="ArialMT-38" d="M 1131 2484 
Q 781 2613 612 2850 
Q 444 3088 444 3419 
Q 444 3919 803 4259 
Q 1163 4600 1759 4600 
Q 2359 4600 2725 4251 
Q 3091 3903 3091 3403 
Q 3091 3084 2923 2848 
Q 2756 2613 2416 2484 
Q 2838 2347 3058 2040 
Q 3278 1734 3278 1309 
Q 3278 722 2862 322 
Q 2447 -78 1769 -78 
Q 1091 -78 675 323 
Q 259 725 259 1325 
Q 259 1772 486 2073 
Q 713 2375 1131 2484 
z
M 1019 3438 
Q 1019 3113 1228 2906 
Q 1438 2700 1772 2700 
Q 2097 2700 2305 2904 
Q 2513 3109 2513 3406 
Q 2513 3716 2298 3927 
Q 2084 4138 1766 4138 
Q 1444 4138 1231 3931 
Q 1019 3725 1019 3438 
z
M 838 1322 
Q 838 1081 952 856 
Q 1066 631 1291 507 
Q 1516 384 1775 384 
Q 2178 384 2440 643 
Q 2703 903 2703 1303 
Q 2703 1709 2433 1975 
Q 2163 2241 1756 2241 
Q 1359 2241 1098 1978 
Q 838 1716 838 1322 
z
" transform="scale(0.015625)"/>
       </defs>
       <use xlink:href="#ArialMT-30"/>
       <use xlink:href="#ArialMT-2e" x="55.615234"/>
       <use xlink:href="#ArialMT-38" x="83.398438"/>
      </g>
     </g>
    </g>
    <g id="xtick_6">
     <g id="line2d_6">
      <path d="M 498.109091 384.48 
L 498.109091 51.84 
" clip-path="url(#p469afb7c60)" style="fill: none; stroke: #ffffff; stroke-linecap: round"/>
     </g>
     <g id="text_6">
      <!-- 1.0 -->
      <g style="fill: #262626" transform="translate(490.464091 401.853594) scale(0.11 -0.11)">
       <defs>
        <path id="ArialMT-31" d="M 2384 0 
L 1822 0 
L 1822 3584 
Q 1619 3391 1289 3197 
Q 959 3003 697 2906 
L 697 3450 
Q 1169 3672 1522 3987 
Q 1875 4303 2022 4600 
L 2384 4600 
L 2384 0 
z
" transform="scale(0.015625)"/>
       </defs>
       <use xlink:href="#ArialMT-31"/>
       <use xlink:href="#ArialMT-2e" x="55.615234"/>
       <use xlink:href="#ArialMT-30" x="83.398438"/>
      </g>
     </g>
    </g>
    <g id="text_7">
     <!-- FPR -->
     <g style="fill: #262626" transform="translate(283.2 416.629219) scale(0.12 -0.12)">
      <defs>
       <path id="ArialMT-46" d="M 525 0 
L 525 4581 
L 3616 4581 
L 3616 4041 
L 1131 4041 
L 1131 2622 
L 3281 2622 
L 3281 2081 
L 1131 2081 
L 1131 0 
L 525 0 
z
" transform="scale(0.015625)"/>
       <path id="ArialMT-50" d="M 494 0 
L 494 4581 
L 2222 4581 
Q 2678 4581 2919 4538 
Q 3256 4481 3484 4323 
Q 3713 4166 3852 3881 
Q 3991 3597 3991 3256 
Q 3991 2672 3619 2267 
Q 3247 1863 2275 1863 
L 1100 1863 
L 1100 0 
L 494 0 
z
M 1100 2403 
L 2284 2403 
Q 2872 2403 3119 2622 
Q 3366 2841 3366 3238 
Q 3366 3525 3220 3729 
Q 3075 3934 2838 4000 
Q 2684 4041 2272 4041 
L 1100 4041 
L 1100 2403 
z
" transform="scale(0.015625)"/>
       <path id="ArialMT-52" d="M 503 0 
L 503 4581 
L 2534 4581 
Q 3147 4581 3465 4457 
Q 3784 4334 3975 4021 
Q 4166 3709 4166 3331 
Q 4166 2844 3850 2509 
Q 3534 2175 2875 2084 
Q 3116 1969 3241 1856 
Q 3506 1613 3744 1247 
L 4541 0 
L 3778 0 
L 3172 953 
Q 2906 1366 2734 1584 
Q 2563 1803 2427 1890 
Q 2291 1978 2150 2013 
Q 2047 2034 1813 2034 
L 1109 2034 
L 1109 0 
L 503 0 
z
M 1109 2559 
L 2413 2559 
Q 2828 2559 3062 2645 
Q 3297 2731 3419 2920 
Q 3541 3109 3541 3331 
Q 3541 3656 3305 3865 
Q 3069 4075 2559 4075 
L 1109 4075 
L 1109 2559 
z
" transform="scale(0.015625)"/>
      </defs>
      <use xlink:href="#ArialMT-46"/>
      <use xlink:href="#ArialMT-50" x="61.083984"/>
      <use xlink:href="#ArialMT-52" x="127.783203"/>
     </g>
    </g>
   </g>
   <g id="matplotlib.axis_2">
    <g id="ytick_1">
     <g id="line2d_7">
      <path d="M 72 369.36 
L 518.4 369.36 
" clip-path="url(#p469afb7c60)" style="fill: none; stroke: #ffffff; stroke-linecap: round"/>
     </g>
     <g id="text_8">
      <!-- 0.0 -->
      <g style="fill: #262626" transform="translate(47.21 373.296797) scale(0.11 -0.11)">
       <use xlink:href="#ArialMT-30"/>
       <use xlink:href="#ArialMT-2e" x="55.615234"/>
       <use xlink:href="#ArialMT-30" x="83.398438"/>
      </g>
     </g>
    </g>
    <g id="ytick_2">
     <g id="line2d_8">
      <path d="M 72 308.88 
L 518.4 308.88 
" clip-path="url(#p469afb7c60)" style="fill: none; stroke: #ffffff; stroke-linecap: round"/>
     </g>
     <g id="text_9">
      <!-- 0.2 -->
      <g style="fill: #262626" transform="translate(47.21 312.816797) scale(0.11 -0.11)">
       <use xlink:href="#ArialMT-30"/>
       <use xlink:href="#ArialMT-2e" x="55.615234"/>
       <use xlink:href="#ArialMT-32" x="83.398438"/>
      </g>
     </g>
    </g>
    <g id="ytick_3">
     <g id="line2d_9">
      <path d="M 72 248.4 
L 518.4 248.4 
" clip-path="url(#p469afb7c60)" style="fill: none; stroke: #ffffff; stroke-linecap: round"/>
     </g>
     <g id="text_10">
      <!-- 0.4 -->
      <g style="fill: #262626" transform="translate(47.21 252.336797) scale(0.11 -0.11)">
       <use xlink:href="#ArialMT-30"/>
       <use xlink:href="#ArialMT-2e" x="55.615234"/>
       <use xlink:href="#ArialMT-34" x="83.398438"/>
      </g>
     </g>
    </g>
    <g id="ytick_4">
     <g id="line2d_10">
      <path d="M 72 187.92 
L 518.4 187.92 
" clip-path="url(#p469afb7c60)" style="fill: none; stroke: #ffffff; stroke-linecap: round"/>
     </g>
     <g id="text_11">
      <!-- 0.6 -->
      <g style="fill: #262626" transform="translate(47.21 191.856797) scale(0.11 -0.11)">
       <use xlink:href="#ArialMT-30"/>
       <use xlink:href="#ArialMT-2e" x="55.615234"/>
       <use xlink:href="#ArialMT-36" x="83.398438"/>
      </g>
     </g>
    </g>
    <g id="ytick_5">
     <g id="line2d_11">
      <path d="M 72 127.44 
L 518.4 127.44 
" clip-path="url(#p469afb7c60)" style="fill: none; stroke: #ffffff; stroke-linecap: round"/>
     </g>
     <g id="text_12">
      <!-- 0.8 -->
      <g style="fill: #262626" transform="translate(47.21 131.376797) scale(0.11 -0.11)">
       <use xlink:href="#ArialMT-30"/>
       <use xlink:href="#ArialMT-2e" x="55.615234"/>
       <use xlink:href="#ArialMT-38" x="83.398438"/>
      </g>
     </g>
    </g>
    <g id="ytick_6">
     <g id="line2d_12">
      <path d="M 72 66.96 
L 518.4 66.96 
" clip-path="url(#p469afb7c60)" style="fill: none; stroke: #ffffff; stroke-linecap: round"/>
     </g>
     <g id="text_13">
      <!-- 1.0 -->
      <g style="fill: #262626" transform="translate(47.21 70.896797) scale(0.11 -0.11)">
       <use xlink:href="#ArialMT-31"/>
       <use xlink:href="#ArialMT-2e" x="55.615234"/>
       <use xlink:href="#ArialMT-30" x="83.398438"/>
      </g>
     </g>
    </g>
    <g id="text_14">
     <!-- TPR -->
     <g style="fill: #262626" transform="translate(40.825 230.16) rotate(-90) scale(0.12 -0.12)">
      <defs>
       <path id="ArialMT-54" d="M 1659 0 
L 1659 4041 
L 150 4041 
L 150 4581 
L 3781 4581 
L 3781 4041 
L 2266 4041 
L 2266 0 
L 1659 0 
z
" transform="scale(0.015625)"/>
      </defs>
      <use xlink:href="#ArialMT-54"/>
      <use xlink:href="#ArialMT-50" x="61.083984"/>
      <use xlink:href="#ArialMT-52" x="127.783203"/>
     </g>
    </g>
   </g>
   <g id="line2d_13">
    <path d="M 92.290909 369.36 
L 92.290909 363.312 
L 92.430846 363.312 
L 92.430846 342.144 
L 92.570784 342.144 
L 92.570784 333.072 
L 92.710721 333.072 
L 92.710721 320.976 
L 92.850658 320.976 
L 92.850658 311.904 
L 92.990596 311.904 
L 92.990596 296.784 
L 93.130533 296.784 
L 93.130533 293.76 
L 93.27047 293.76 
L 93.27047 278.64 
L 93.550345 278.64 
L 93.550345 266.544 
L 93.690282 266.544 
L 93.690282 263.52 
L 93.830219 263.52 
L 93.830219 260.496 
L 93.970157 260.496 
L 93.970157 257.472 
L 94.110094 257.472 
L 94.110094 251.424 
L 94.949718 251.424 
L 94.949718 248.4 
L 95.089655 248.4 
L 95.089655 245.376 
L 97.048777 245.376 
L 97.048777 242.352 
L 97.888401 242.352 
L 97.888401 230.256 
L 98.308213 230.256 
L 98.308213 227.232 
L 98.588088 227.232 
L 98.588088 224.208 
L 98.728025 224.208 
L 98.728025 221.184 
L 98.867962 221.184 
L 98.867962 218.16 
L 99.707586 218.16 
L 99.707586 212.112 
L 99.987461 212.112 
L 99.987461 206.064 
L 100.687147 206.064 
L 100.687147 203.04 
L 101.946583 203.04 
L 101.946583 200.016 
L 102.226458 200.016 
L 102.226458 196.992 
L 103.485893 196.992 
L 103.485893 190.944 
L 103.905705 190.944 
L 103.905705 184.896 
L 105.584953 184.896 
L 105.584953 181.872 
L 106.284639 181.872 
L 106.284639 178.848 
L 107.124263 178.848 
L 107.124263 175.824 
L 107.404138 175.824 
L 107.404138 169.776 
L 107.544075 169.776 
L 107.544075 166.752 
L 107.684013 166.752 
L 107.684013 163.728 
L 107.963887 163.728 
L 107.963887 157.68 
L 109.223323 157.68 
L 109.223323 154.656 
L 109.643135 154.656 
L 109.643135 151.632 
L 112.162006 151.632 
L 112.162006 148.608 
L 112.721755 148.608 
L 112.721755 145.584 
L 117.059812 145.584 
L 117.059812 139.536 
L 118.319248 139.536 
L 118.319248 136.512 
L 119.298809 136.512 
L 119.298809 133.488 
L 119.858558 133.488 
L 119.858558 130.464 
L 121.537806 130.464 
L 121.537806 127.44 
L 122.517367 127.44 
L 122.517367 121.392 
L 130.213918 121.392 
L 130.213918 118.368 
L 133.572414 118.368 
L 133.572414 115.344 
L 136.511097 115.344 
L 136.511097 112.32 
L 143.927774 112.32 
L 143.927774 109.296 
L 145.047273 109.296 
L 145.047273 106.272 
L 145.327147 106.272 
L 145.327147 103.248 
L 159.18094 103.248 
L 159.18094 100.224 
L 172.055172 100.224 
L 172.055172 97.2 
L 179.331912 97.2 
L 179.331912 94.176 
L 187.028464 94.176 
L 187.028464 91.152 
L 193.745455 91.152 
L 193.745455 88.128 
L 198.363386 88.128 
L 198.363386 85.104 
L 215.715611 85.104 
L 215.715611 82.08 
L 223.692038 82.08 
L 223.692038 79.056 
L 236.986082 79.056 
L 236.986082 76.032 
L 299.398119 76.032 
L 299.398119 73.008 
L 316.610408 73.008 
L 316.610408 69.984 
L 341.099436 69.984 
L 341.099436 66.96 
L 498.109091 66.96 
L 498.109091 66.96 
" clip-path="url(#p469afb7c60)" style="fill: none; stroke: #4c72b0; stroke-width: 1.5; stroke-linecap: round"/>
   </g>
   <g id="line2d_14">
    <path d="M 92.290909 369.36 
L 92.290909 360.288 
L 92.430846 360.288 
L 92.430846 336.096 
L 92.570784 336.096 
L 92.570784 308.88 
L 92.710721 308.88 
L 92.710721 302.832 
L 93.410408 302.832 
L 93.410408 293.76 
L 93.970157 293.76 
L 93.970157 290.736 
L 94.250031 290.736 
L 94.250031 281.664 
L 94.389969 281.664 
L 94.389969 278.64 
L 94.529906 278.64 
L 94.529906 275.616 
L 97.188715 275.616 
L 97.188715 272.592 
L 97.888401 272.592 
L 97.888401 269.568 
L 98.867962 269.568 
L 98.867962 266.544 
L 99.147837 266.544 
L 99.147837 263.52 
L 101.246897 263.52 
L 101.246897 254.448 
L 101.806646 254.448 
L 101.806646 251.424 
L 102.506332 251.424 
L 102.506332 248.4 
L 103.345956 248.4 
L 103.345956 242.352 
L 104.605392 242.352 
L 104.605392 239.328 
L 104.885266 239.328 
L 104.885266 233.28 
L 105.025204 233.28 
L 105.025204 230.256 
L 106.284639 230.256 
L 106.284639 224.208 
L 106.424577 224.208 
L 106.424577 221.184 
L 106.564514 221.184 
L 106.564514 215.136 
L 109.643135 215.136 
L 109.643135 212.112 
L 110.482759 212.112 
L 110.482759 209.088 
L 111.322382 209.088 
L 111.322382 206.064 
L 111.602257 206.064 
L 111.602257 203.04 
L 111.882132 203.04 
L 111.882132 200.016 
L 112.022069 200.016 
L 112.022069 196.992 
L 112.301944 196.992 
L 112.301944 190.944 
L 112.861693 190.944 
L 112.861693 187.92 
L 113.00163 187.92 
L 113.00163 184.896 
L 113.281505 184.896 
L 113.281505 181.872 
L 113.561379 181.872 
L 113.561379 175.824 
L 113.841254 175.824 
L 113.841254 172.8 
L 114.121129 172.8 
L 114.121129 169.776 
L 114.261066 169.776 
L 114.261066 160.704 
L 114.820815 160.704 
L 114.820815 157.68 
L 115.240627 157.68 
L 115.240627 151.632 
L 116.64 151.632 
L 116.64 148.608 
L 116.919875 148.608 
L 116.919875 145.584 
L 121.957618 145.584 
L 121.957618 142.56 
L 122.377429 142.56 
L 122.377429 139.536 
L 124.896301 139.536 
L 124.896301 136.512 
L 125.036238 136.512 
L 125.036238 133.488 
L 126.855423 133.488 
L 126.855423 130.464 
L 130.353856 130.464 
L 130.353856 127.44 
L 131.613292 127.44 
L 131.613292 124.416 
L 134.691912 124.416 
L 134.691912 121.392 
L 136.091285 121.392 
L 136.091285 118.368 
L 138.610157 118.368 
L 138.610157 115.344 
L 142.388464 115.344 
L 142.388464 112.32 
L 143.787837 112.32 
L 143.787837 109.296 
L 151.624326 109.296 
L 151.624326 106.272 
L 168.696677 106.272 
L 168.696677 103.248 
L 177.932539 103.248 
L 177.932539 100.224 
L 181.291034 100.224 
L 181.291034 97.2 
L 189.267461 97.2 
L 189.267461 94.176 
L 190.526897 94.176 
L 190.526897 91.152 
L 204.38069 91.152 
L 204.38069 88.128 
L 212.357116 88.128 
L 212.357116 85.104 
L 225.931034 85.104 
L 225.931034 82.08 
L 226.910596 82.08 
L 226.910596 79.056 
L 227.750219 79.056 
L 227.750219 76.032 
L 285.124514 76.032 
L 285.124514 73.008 
L 372.305455 73.008 
L 372.305455 69.984 
L 383.220564 69.984 
L 383.220564 66.96 
L 498.109091 66.96 
L 498.109091 66.96 
" clip-path="url(#p469afb7c60)" style="fill: none; stroke: #dd8452; stroke-width: 1.5; stroke-linecap: round"/>
   </g>
   <g id="line2d_15">
    <path d="M 92.290909 369.36 
L 92.290909 366.336 
L 92.430846 366.336 
L 92.430846 363.312 
L 92.570784 363.312 
L 92.570784 357.264 
L 92.710721 357.264 
L 92.710721 348.192 
L 92.850658 348.192 
L 92.850658 311.904 
L 93.130533 311.904 
L 93.130533 299.808 
L 93.27047 299.808 
L 93.27047 287.712 
L 93.410408 287.712 
L 93.410408 284.688 
L 93.550345 284.688 
L 93.550345 278.64 
L 93.830219 278.64 
L 93.830219 275.616 
L 94.250031 275.616 
L 94.389969 272.592 
L 94.389969 260.496 
L 94.529906 260.496 
L 94.529906 257.472 
L 94.669843 257.472 
L 94.669843 254.448 
L 94.809781 254.448 
L 94.809781 251.424 
L 95.929279 251.424 
L 95.929279 242.352 
L 96.069216 242.352 
L 96.069216 239.328 
L 96.489028 239.328 
L 96.489028 236.304 
L 96.90884 236.304 
L 96.90884 233.28 
L 98.728025 233.28 
L 98.728025 230.256 
L 99.427712 230.256 
L 99.427712 227.232 
L 100.127398 227.232 
L 100.267335 224.208 
L 101.106959 224.208 
L 101.106959 218.16 
L 102.226458 218.16 
L 102.226458 215.136 
L 102.926144 215.136 
L 102.926144 209.088 
L 103.485893 209.088 
L 103.485893 206.064 
L 104.18558 206.064 
L 104.18558 203.04 
L 105.165141 203.04 
L 105.165141 200.016 
L 105.445016 200.016 
L 105.445016 187.92 
L 105.72489 187.92 
L 105.72489 184.896 
L 106.284639 184.896 
L 106.284639 181.872 
L 106.564514 181.872 
L 106.564514 178.848 
L 109.36326 178.848 
L 109.36326 175.824 
L 110.202884 175.824 
L 110.202884 172.8 
L 110.482759 172.8 
L 110.482759 169.776 
L 111.042508 169.776 
L 111.042508 166.752 
L 111.322382 166.752 
L 111.322382 163.728 
L 111.742194 163.728 
L 111.742194 160.704 
L 113.701317 160.704 
L 113.701317 157.68 
L 114.820815 157.68 
L 114.820815 154.656 
L 115.240627 154.656 
L 115.240627 151.632 
L 115.380564 151.632 
L 115.380564 148.608 
L 115.660439 148.608 
L 115.660439 145.584 
L 116.64 145.584 
L 116.64 142.56 
L 120.698182 142.56 
L 120.698182 139.536 
L 123.356991 139.536 
L 123.356991 136.512 
L 126.995361 136.512 
L 126.995361 133.488 
L 127.55511 133.488 
L 127.55511 130.464 
L 131.613292 130.464 
L 131.613292 127.44 
L 133.572414 127.44 
L 133.572414 124.416 
L 138.610157 124.416 
L 138.610157 121.392 
L 150.924639 121.392 
L 150.924639 118.368 
L 155.262696 118.368 
L 155.262696 115.344 
L 162.119624 115.344 
L 162.119624 112.32 
L 162.959248 112.32 
L 162.959248 109.296 
L 166.45768 109.296 
L 166.45768 106.272 
L 166.877492 106.272 
L 166.877492 103.248 
L 187.028464 103.248 
L 187.028464 100.224 
L 187.308339 100.224 
L 187.308339 94.176 
L 188.847649 94.176 
L 188.847649 91.152 
L 198.783197 91.152 
L 198.783197 88.128 
L 207.039498 88.128 
L 207.039498 85.104 
L 210.258056 85.104 
L 210.258056 82.08 
L 229.709342 82.08 
L 229.849279 79.056 
L 247.341442 79.056 
L 247.341442 76.032 
L 338.440627 76.032 
L 339.84 73.008 
L 366.987837 73.008 
L 498.109091 66.96 
L 498.109091 66.96 
" clip-path="url(#p469afb7c60)" style="fill: none; stroke: #55a868; stroke-width: 1.5; stroke-linecap: round"/>
   </g>
   <g id="line2d_16">
    <path d="M 92.290909 369.36 
L 92.710721 369.36 
L 92.710721 333.072 
L 92.850658 333.072 
L 92.850658 330.048 
L 92.990596 330.048 
L 92.990596 327.024 
L 93.130533 324 
L 93.130533 311.904 
L 93.27047 311.904 
L 93.27047 305.856 
L 93.410408 305.856 
L 93.410408 290.736 
L 93.970157 290.736 
L 93.970157 284.688 
L 94.110094 284.688 
L 94.110094 272.592 
L 94.949718 272.592 
L 94.949718 269.568 
L 95.229592 269.568 
L 95.229592 266.544 
L 95.36953 266.544 
L 95.36953 263.52 
L 96.069216 263.52 
L 96.069216 260.496 
L 96.349091 260.496 
L 96.349091 257.472 
L 96.628966 257.472 
L 96.628966 254.448 
L 97.608527 254.448 
L 97.608527 245.376 
L 98.728025 245.376 
L 98.728025 242.352 
L 99.987461 242.352 
L 100.127398 239.328 
L 101.666708 239.328 
L 101.666708 236.304 
L 102.226458 236.304 
L 102.226458 233.28 
L 102.64627 233.28 
L 102.786207 230.256 
L 103.765768 230.256 
L 103.765768 227.232 
L 104.745329 227.232 
L 104.745329 218.16 
L 105.584953 218.16 
L 105.584953 209.088 
L 106.004765 209.088 
L 106.004765 203.04 
L 106.704451 203.04 
L 106.704451 200.016 
L 107.82395 200.016 
L 107.82395 196.992 
L 110.902571 196.992 
L 110.902571 193.968 
L 111.882132 193.968 
L 111.882132 190.944 
L 113.421442 190.944 
L 113.421442 187.92 
L 114.261066 187.92 
L 114.261066 184.896 
L 120.418307 184.896 
L 120.418307 181.872 
L 122.517367 181.872 
L 122.517367 178.848 
L 125.735925 178.848 
L 125.735925 175.824 
L 129.934044 175.824 
L 129.934044 172.8 
L 130.353856 172.8 
L 130.353856 169.776 
L 130.773668 169.776 
L 130.773668 166.752 
L 131.473354 166.752 
L 131.473354 163.728 
L 132.73279 163.728 
L 132.73279 160.704 
L 134.551975 160.704 
L 134.551975 157.68 
L 136.231223 157.68 
L 136.231223 154.656 
L 136.930909 154.656 
L 136.930909 151.632 
L 139.869592 151.632 
L 139.869592 148.608 
L 142.248527 148.608 
L 142.248527 145.584 
L 143.6479 145.584 
L 143.6479 142.56 
L 149.525266 142.56 
L 149.525266 136.512 
L 150.085016 136.512 
L 150.085016 133.488 
L 153.723386 133.488 
L 153.723386 127.44 
L 154.702947 127.44 
L 154.702947 124.416 
L 165.757994 124.416 
L 165.757994 121.392 
L 166.037868 121.392 
L 166.177806 118.368 
L 167.996991 118.368 
L 167.996991 115.344 
L 170.515862 115.344 
L 170.515862 112.32 
L 173.314608 112.32 
L 173.314608 109.296 
L 178.352351 109.296 
L 178.352351 106.272 
L 178.9121 106.272 
L 178.9121 103.248 
L 182.410533 103.248 
L 182.410533 100.224 
L 185.629091 100.224 
L 185.629091 97.2 
L 190.107085 97.2 
L 190.107085 94.176 
L 198.923135 94.176 
L 198.923135 91.152 
L 207.179436 91.152 
L 207.179436 85.104 
L 216.415298 85.104 
L 216.415298 82.08 
L 216.975047 82.08 
L 216.975047 79.056 
L 222.01279 79.056 
L 222.01279 76.032 
L 373.285016 76.032 
L 375.244138 73.008 
L 475.719122 73.008 
L 476.418809 69.984 
L 483.555611 69.984 
L 486.634232 66.96 
L 498.109091 66.96 
L 498.109091 66.96 
" clip-path="url(#p469afb7c60)" style="fill: none; stroke: #c44e52; stroke-width: 1.5; stroke-linecap: round"/>
   </g>
   <g id="line2d_17">
    <path d="M 92.290909 369.36 
L 92.430846 369.36 
L 92.430846 360.288 
L 92.850658 360.288 
L 92.850658 324 
L 92.990596 324 
L 92.990596 320.976 
L 93.27047 320.976 
L 93.27047 308.88 
L 93.690282 308.88 
L 93.690282 305.856 
L 94.389969 305.856 
L 94.389969 296.784 
L 94.529906 296.784 
L 94.529906 290.736 
L 94.669843 290.736 
L 94.669843 287.712 
L 94.949718 287.712 
L 94.949718 284.688 
L 95.089655 284.688 
L 95.089655 281.664 
L 95.36953 281.664 
L 95.36953 275.616 
L 95.789342 275.616 
L 95.789342 272.592 
L 96.349091 272.592 
L 96.349091 266.544 
L 96.489028 266.544 
L 96.489028 257.472 
L 96.768903 257.472 
L 96.768903 254.448 
L 97.048777 254.448 
L 97.048777 245.376 
L 97.188715 245.376 
L 97.188715 242.352 
L 97.328652 242.352 
L 97.328652 236.304 
L 98.168276 236.304 
L 98.168276 233.28 
L 99.987461 233.28 
L 99.987461 230.256 
L 100.967022 230.256 
L 100.967022 227.232 
L 101.946583 227.232 
L 101.946583 221.184 
L 102.226458 221.184 
L 102.226458 218.16 
L 102.366395 218.16 
L 102.366395 215.136 
L 102.64627 215.136 
L 102.64627 212.112 
L 103.066082 212.112 
L 103.066082 209.088 
L 103.765768 209.088 
L 103.765768 206.064 
L 104.045643 206.064 
L 104.045643 203.04 
L 105.584953 203.04 
L 105.584953 200.016 
L 106.424577 200.016 
L 106.424577 196.992 
L 106.704451 196.992 
L 106.704451 193.968 
L 106.844389 193.968 
L 106.844389 190.944 
L 108.943448 190.944 
L 108.943448 187.92 
L 110.762633 187.92 
L 110.762633 184.896 
L 111.322382 184.896 
L 111.322382 181.872 
L 111.602257 181.872 
L 111.602257 178.848 
L 112.162006 178.848 
L 112.162006 175.824 
L 113.141567 175.824 
L 113.141567 172.8 
L 114.54094 172.8 
L 114.54094 169.776 
L 114.820815 169.776 
L 114.820815 166.752 
L 115.380564 166.752 
L 115.380564 163.728 
L 116.360125 163.728 
L 116.360125 160.704 
L 116.919875 160.704 
L 116.919875 157.68 
L 119.298809 157.68 
L 119.298809 154.656 
L 119.718621 154.656 
L 119.718621 151.632 
L 125.735925 151.632 
L 125.735925 148.608 
L 126.435611 148.608 
L 126.435611 145.584 
L 127.974922 145.584 
L 127.974922 139.536 
L 135.671473 139.536 
L 135.671473 136.512 
L 137.91047 136.512 
L 137.91047 133.488 
L 138.890031 133.488 
L 138.890031 130.464 
L 141.268966 130.464 
L 141.268966 127.44 
L 142.808276 127.44 
L 142.808276 124.416 
L 143.507962 124.416 
L 143.507962 121.392 
L 143.927774 121.392 
L 143.927774 115.344 
L 147.985956 115.344 
L 147.985956 112.32 
L 154.283135 112.32 
L 154.283135 109.296 
L 157.081881 109.296 
L 157.081881 106.272 
L 157.64163 106.272 
L 157.64163 103.248 
L 172.614922 103.248 
L 172.614922 100.224 
L 177.232853 100.224 
L 177.232853 97.2 
L 190.526897 97.2 
L 190.526897 94.176 
L 191.506458 94.176 
L 191.506458 91.152 
L 197.803636 91.152 
L 197.803636 88.128 
L 206.199875 88.128 
L 206.199875 85.104 
L 222.432602 85.104 
L 222.432602 82.08 
L 223.412163 82.08 
L 223.412163 79.056 
L 229.149592 79.056 
L 229.149592 76.032 
L 331.303824 76.032 
L 331.303824 73.008 
L 339.140313 73.008 
L 339.140313 69.984 
L 467.462821 69.984 
L 468.022571 66.96 
L 498.109091 66.96 
L 498.109091 66.96 
" clip-path="url(#p469afb7c60)" style="fill: none; stroke: #8172b3; stroke-width: 1.5; stroke-linecap: round"/>
   </g>
   <g id="line2d_18">
    <path d="M 92.290909 369.36 
L 96.390083 366.305455 
L 100.489256 363.250909 
L 104.58843 360.196364 
L 108.687603 357.141818 
L 112.786777 354.087273 
L 116.88595 351.032727 
L 120.985124 347.978182 
L 125.084298 344.923636 
L 129.183471 341.869091 
L 133.282645 338.814545 
L 137.381818 335.76 
L 141.480992 332.705455 
L 145.580165 329.650909 
L 149.679339 326.596364 
L 153.778512 323.541818 
L 157.877686 320.487273 
L 161.97686 317.432727 
L 166.076033 314.378182 
L 170.175207 311.323636 
L 174.27438 308.269091 
L 178.373554 305.214545 
L 182.472727 302.16 
L 186.571901 299.105455 
L 190.671074 296.050909 
L 194.770248 292.996364 
L 198.869421 289.941818 
L 202.968595 286.887273 
L 207.067769 283.832727 
L 211.166942 280.778182 
L 215.266116 277.723636 
L 219.365289 274.669091 
L 223.464463 271.614545 
L 227.563636 268.56 
L 231.66281 265.505455 
L 235.761983 262.450909 
L 239.861157 259.396364 
L 243.960331 256.341818 
L 248.059504 253.287273 
L 252.158678 250.232727 
L 256.257851 247.178182 
L 260.357025 244.123636 
L 264.456198 241.069091 
L 268.555372 238.014545 
L 272.654545 234.96 
L 276.753719 231.905455 
L 280.852893 228.850909 
L 284.952066 225.796364 
L 289.05124 222.741818 
L 293.150413 219.687273 
L 297.249587 216.632727 
L 301.34876 213.578182 
L 305.447934 210.523636 
L 309.547107 207.469091 
L 313.646281 204.414545 
L 317.745455 201.36 
L 321.844628 198.305455 
L 325.943802 195.250909 
L 330.042975 192.196364 
L 334.142149 189.141818 
L 338.241322 186.087273 
L 342.340496 183.032727 
L 346.439669 179.978182 
L 350.538843 176.923636 
L 354.638017 173.869091 
L 358.73719 170.814545 
L 362.836364 167.76 
L 366.935537 164.705455 
L 371.034711 161.650909 
L 375.133884 158.596364 
L 379.233058 155.541818 
L 383.332231 152.487273 
L 387.431405 149.432727 
L 391.530579 146.378182 
L 395.629752 143.323636 
L 399.728926 140.269091 
L 403.828099 137.214545 
L 407.927273 134.16 
L 412.026446 131.105455 
L 416.12562 128.050909 
L 420.224793 124.996364 
L 424.323967 121.941818 
L 428.42314 118.887273 
L 432.522314 115.832727 
L 436.621488 112.778182 
L 440.720661 109.723636 
L 444.819835 106.669091 
L 448.919008 103.614545 
L 453.018182 100.56 
L 457.117355 97.505455 
L 461.216529 94.450909 
L 465.315702 91.396364 
L 469.414876 88.341818 
L 473.51405 85.287273 
L 477.613223 82.232727 
L 481.712397 79.178182 
L 485.81157 76.123636 
L 489.910744 73.069091 
L 494.009917 70.014545 
L 498.109091 66.96 
" clip-path="url(#p469afb7c60)" style="fill: none; stroke-dasharray: 5.55,2.4; stroke-dashoffset: 0; stroke: #c44e52; stroke-width: 1.5"/>
   </g>
   <g id="patch_3">
    <path d="M 72 384.48 
L 72 51.84 
" style="fill: none; stroke: #ffffff; stroke-width: 1.25; stroke-linejoin: miter; stroke-linecap: square"/>
   </g>
   <g id="patch_4">
    <path d="M 518.4 384.48 
L 518.4 51.84 
" style="fill: none; stroke: #ffffff; stroke-width: 1.25; stroke-linejoin: miter; stroke-linecap: square"/>
   </g>
   <g id="patch_5">
    <path d="M 72 384.48 
L 518.4 384.48 
" style="fill: none; stroke: #ffffff; stroke-width: 1.25; stroke-linejoin: miter; stroke-linecap: square"/>
   </g>
   <g id="patch_6">
    <path d="M 72 51.84 
L 518.4 51.84 
" style="fill: none; stroke: #ffffff; stroke-width: 1.25; stroke-linejoin: miter; stroke-linecap: square"/>
   </g>
   <g id="text_15">
    <!-- ROC Curve -->
    <g style="fill: #262626" transform="translate(264.195938 45.84) scale(0.12 -0.12)">
     <defs>
      <path id="ArialMT-4f" d="M 309 2231 
Q 309 3372 921 4017 
Q 1534 4663 2503 4663 
Q 3138 4663 3647 4359 
Q 4156 4056 4423 3514 
Q 4691 2972 4691 2284 
Q 4691 1588 4409 1038 
Q 4128 488 3612 205 
Q 3097 -78 2500 -78 
Q 1853 -78 1343 234 
Q 834 547 571 1087 
Q 309 1628 309 2231 
z
M 934 2222 
Q 934 1394 1379 917 
Q 1825 441 2497 441 
Q 3181 441 3623 922 
Q 4066 1403 4066 2288 
Q 4066 2847 3877 3264 
Q 3688 3681 3323 3911 
Q 2959 4141 2506 4141 
Q 1863 4141 1398 3698 
Q 934 3256 934 2222 
z
" transform="scale(0.015625)"/>
      <path id="ArialMT-43" d="M 3763 1606 
L 4369 1453 
Q 4178 706 3683 314 
Q 3188 -78 2472 -78 
Q 1731 -78 1267 223 
Q 803 525 561 1097 
Q 319 1669 319 2325 
Q 319 3041 592 3573 
Q 866 4106 1370 4382 
Q 1875 4659 2481 4659 
Q 3169 4659 3637 4309 
Q 4106 3959 4291 3325 
L 3694 3184 
Q 3534 3684 3231 3912 
Q 2928 4141 2469 4141 
Q 1941 4141 1586 3887 
Q 1231 3634 1087 3207 
Q 944 2781 944 2328 
Q 944 1744 1114 1308 
Q 1284 872 1643 656 
Q 2003 441 2422 441 
Q 2931 441 3284 734 
Q 3638 1028 3763 1606 
z
" transform="scale(0.015625)"/>
      <path id="ArialMT-20" transform="scale(0.015625)"/>
      <path id="ArialMT-75" d="M 2597 0 
L 2597 488 
Q 2209 -75 1544 -75 
Q 1250 -75 995 37 
Q 741 150 617 320 
Q 494 491 444 738 
Q 409 903 409 1263 
L 409 3319 
L 972 3319 
L 972 1478 
Q 972 1038 1006 884 
Q 1059 663 1231 536 
Q 1403 409 1656 409 
Q 1909 409 2131 539 
Q 2353 669 2445 892 
Q 2538 1116 2538 1541 
L 2538 3319 
L 3100 3319 
L 3100 0 
L 2597 0 
z
" transform="scale(0.015625)"/>
      <path id="ArialMT-72" d="M 416 0 
L 416 3319 
L 922 3319 
L 922 2816 
Q 1116 3169 1280 3281 
Q 1444 3394 1641 3394 
Q 1925 3394 2219 3213 
L 2025 2691 
Q 1819 2813 1613 2813 
Q 1428 2813 1281 2702 
Q 1134 2591 1072 2394 
Q 978 2094 978 1738 
L 978 0 
L 416 0 
z
" transform="scale(0.015625)"/>
      <path id="ArialMT-76" d="M 1344 0 
L 81 3319 
L 675 3319 
L 1388 1331 
Q 1503 1009 1600 663 
Q 1675 925 1809 1294 
L 2547 3319 
L 3125 3319 
L 1869 0 
L 1344 0 
z
" transform="scale(0.015625)"/>
      <path id="ArialMT-65" d="M 2694 1069 
L 3275 997 
Q 3138 488 2766 206 
Q 2394 -75 1816 -75 
Q 1088 -75 661 373 
Q 234 822 234 1631 
Q 234 2469 665 2931 
Q 1097 3394 1784 3394 
Q 2450 3394 2872 2941 
Q 3294 2488 3294 1666 
Q 3294 1616 3291 1516 
L 816 1516 
Q 847 969 1125 678 
Q 1403 388 1819 388 
Q 2128 388 2347 550 
Q 2566 713 2694 1069 
z
M 847 1978 
L 2700 1978 
Q 2663 2397 2488 2606 
Q 2219 2931 1791 2931 
Q 1403 2931 1139 2672 
Q 875 2413 847 1978 
z
" transform="scale(0.015625)"/>
     </defs>
     <use xlink:href="#ArialMT-52"/>
     <use xlink:href="#ArialMT-4f" x="72.216797"/>
     <use xlink:href="#ArialMT-43" x="150"/>
     <use xlink:href="#ArialMT-20" x="222.216797"/>
     <use xlink:href="#ArialMT-43" x="250"/>
     <use xlink:href="#ArialMT-75" x="322.216797"/>
     <use xlink:href="#ArialMT-72" x="377.832031"/>
     <use xlink:href="#ArialMT-76" x="411.132812"/>
     <use xlink:href="#ArialMT-65" x="461.132812"/>
    </g>
   </g>
   <g id="legend_1">
    <g id="patch_7">
     <path d="M 319.887812 378.98 
L 510.7 378.98 
Q 512.9 378.98 512.9 376.78 
L 512.9 299.554844 
Q 512.9 297.354844 510.7 297.354844 
L 319.887812 297.354844 
Q 317.687812 297.354844 317.687812 299.554844 
L 317.687812 376.78 
Q 317.687812 378.98 319.887812 378.98 
z
" style="fill: #eaeaf2; opacity: 0.8; stroke: #cccccc; stroke-linejoin: miter"/>
    </g>
    <g id="line2d_19">
     <path d="M 322.087812 305.9125 
L 333.087812 305.9125 
L 344.087812 305.9125 
" style="fill: none; stroke: #4c72b0; stroke-width: 1.5; stroke-linecap: round"/>
    </g>
    <g id="text_16">
     <!-- LogisticRegression, AUC=0.938 -->
     <g style="fill: #262626" transform="translate(352.887812 309.7625) scale(0.11 -0.11)">
      <defs>
       <path id="ArialMT-4c" d="M 469 0 
L 469 4581 
L 1075 4581 
L 1075 541 
L 3331 541 
L 3331 0 
L 469 0 
z
" transform="scale(0.015625)"/>
       <path id="ArialMT-6f" d="M 213 1659 
Q 213 2581 725 3025 
Q 1153 3394 1769 3394 
Q 2453 3394 2887 2945 
Q 3322 2497 3322 1706 
Q 3322 1066 3130 698 
Q 2938 331 2570 128 
Q 2203 -75 1769 -75 
Q 1072 -75 642 372 
Q 213 819 213 1659 
z
M 791 1659 
Q 791 1022 1069 705 
Q 1347 388 1769 388 
Q 2188 388 2466 706 
Q 2744 1025 2744 1678 
Q 2744 2294 2464 2611 
Q 2184 2928 1769 2928 
Q 1347 2928 1069 2612 
Q 791 2297 791 1659 
z
" transform="scale(0.015625)"/>
       <path id="ArialMT-67" d="M 319 -275 
L 866 -356 
Q 900 -609 1056 -725 
Q 1266 -881 1628 -881 
Q 2019 -881 2231 -725 
Q 2444 -569 2519 -288 
Q 2563 -116 2559 434 
Q 2191 0 1641 0 
Q 956 0 581 494 
Q 206 988 206 1678 
Q 206 2153 378 2554 
Q 550 2956 876 3175 
Q 1203 3394 1644 3394 
Q 2231 3394 2613 2919 
L 2613 3319 
L 3131 3319 
L 3131 450 
Q 3131 -325 2973 -648 
Q 2816 -972 2473 -1159 
Q 2131 -1347 1631 -1347 
Q 1038 -1347 672 -1080 
Q 306 -813 319 -275 
z
M 784 1719 
Q 784 1066 1043 766 
Q 1303 466 1694 466 
Q 2081 466 2343 764 
Q 2606 1063 2606 1700 
Q 2606 2309 2336 2618 
Q 2066 2928 1684 2928 
Q 1309 2928 1046 2623 
Q 784 2319 784 1719 
z
" transform="scale(0.015625)"/>
       <path id="ArialMT-69" d="M 425 3934 
L 425 4581 
L 988 4581 
L 988 3934 
L 425 3934 
z
M 425 0 
L 425 3319 
L 988 3319 
L 988 0 
L 425 0 
z
" transform="scale(0.015625)"/>
       <path id="ArialMT-73" d="M 197 991 
L 753 1078 
Q 800 744 1014 566 
Q 1228 388 1613 388 
Q 2000 388 2187 545 
Q 2375 703 2375 916 
Q 2375 1106 2209 1216 
Q 2094 1291 1634 1406 
Q 1016 1563 777 1677 
Q 538 1791 414 1992 
Q 291 2194 291 2438 
Q 291 2659 392 2848 
Q 494 3038 669 3163 
Q 800 3259 1026 3326 
Q 1253 3394 1513 3394 
Q 1903 3394 2198 3281 
Q 2494 3169 2634 2976 
Q 2775 2784 2828 2463 
L 2278 2388 
Q 2241 2644 2061 2787 
Q 1881 2931 1553 2931 
Q 1166 2931 1000 2803 
Q 834 2675 834 2503 
Q 834 2394 903 2306 
Q 972 2216 1119 2156 
Q 1203 2125 1616 2013 
Q 2213 1853 2448 1751 
Q 2684 1650 2818 1456 
Q 2953 1263 2953 975 
Q 2953 694 2789 445 
Q 2625 197 2315 61 
Q 2006 -75 1616 -75 
Q 969 -75 630 194 
Q 291 463 197 991 
z
" transform="scale(0.015625)"/>
       <path id="ArialMT-74" d="M 1650 503 
L 1731 6 
Q 1494 -44 1306 -44 
Q 1000 -44 831 53 
Q 663 150 594 308 
Q 525 466 525 972 
L 525 2881 
L 113 2881 
L 113 3319 
L 525 3319 
L 525 4141 
L 1084 4478 
L 1084 3319 
L 1650 3319 
L 1650 2881 
L 1084 2881 
L 1084 941 
Q 1084 700 1114 631 
Q 1144 563 1211 522 
Q 1278 481 1403 481 
Q 1497 481 1650 503 
z
" transform="scale(0.015625)"/>
       <path id="ArialMT-63" d="M 2588 1216 
L 3141 1144 
Q 3050 572 2676 248 
Q 2303 -75 1759 -75 
Q 1078 -75 664 370 
Q 250 816 250 1647 
Q 250 2184 428 2587 
Q 606 2991 970 3192 
Q 1334 3394 1763 3394 
Q 2303 3394 2647 3120 
Q 2991 2847 3088 2344 
L 2541 2259 
Q 2463 2594 2264 2762 
Q 2066 2931 1784 2931 
Q 1359 2931 1093 2626 
Q 828 2322 828 1663 
Q 828 994 1084 691 
Q 1341 388 1753 388 
Q 2084 388 2306 591 
Q 2528 794 2588 1216 
z
" transform="scale(0.015625)"/>
       <path id="ArialMT-6e" d="M 422 0 
L 422 3319 
L 928 3319 
L 928 2847 
Q 1294 3394 1984 3394 
Q 2284 3394 2536 3286 
Q 2788 3178 2913 3003 
Q 3038 2828 3088 2588 
Q 3119 2431 3119 2041 
L 3119 0 
L 2556 0 
L 2556 2019 
Q 2556 2363 2490 2533 
Q 2425 2703 2258 2804 
Q 2091 2906 1866 2906 
Q 1506 2906 1245 2678 
Q 984 2450 984 1813 
L 984 0 
L 422 0 
z
" transform="scale(0.015625)"/>
       <path id="ArialMT-2c" d="M 569 0 
L 569 641 
L 1209 641 
L 1209 0 
Q 1209 -353 1084 -570 
Q 959 -788 688 -906 
L 531 -666 
Q 709 -588 793 -436 
Q 878 -284 888 0 
L 569 0 
z
" transform="scale(0.015625)"/>
       <path id="ArialMT-41" d="M -9 0 
L 1750 4581 
L 2403 4581 
L 4278 0 
L 3588 0 
L 3053 1388 
L 1138 1388 
L 634 0 
L -9 0 
z
M 1313 1881 
L 2866 1881 
L 2388 3150 
Q 2169 3728 2063 4100 
Q 1975 3659 1816 3225 
L 1313 1881 
z
" transform="scale(0.015625)"/>
       <path id="ArialMT-55" d="M 3500 4581 
L 4106 4581 
L 4106 1934 
Q 4106 1244 3950 837 
Q 3794 431 3386 176 
Q 2978 -78 2316 -78 
Q 1672 -78 1262 144 
Q 853 366 678 786 
Q 503 1206 503 1934 
L 503 4581 
L 1109 4581 
L 1109 1938 
Q 1109 1341 1220 1058 
Q 1331 775 1601 622 
Q 1872 469 2263 469 
Q 2931 469 3215 772 
Q 3500 1075 3500 1938 
L 3500 4581 
z
" transform="scale(0.015625)"/>
       <path id="ArialMT-3d" d="M 3381 2694 
L 356 2694 
L 356 3219 
L 3381 3219 
L 3381 2694 
z
M 3381 1303 
L 356 1303 
L 356 1828 
L 3381 1828 
L 3381 1303 
z
" transform="scale(0.015625)"/>
       <path id="ArialMT-39" d="M 350 1059 
L 891 1109 
Q 959 728 1153 556 
Q 1347 384 1650 384 
Q 1909 384 2104 503 
Q 2300 622 2425 820 
Q 2550 1019 2634 1356 
Q 2719 1694 2719 2044 
Q 2719 2081 2716 2156 
Q 2547 1888 2255 1720 
Q 1963 1553 1622 1553 
Q 1053 1553 659 1965 
Q 266 2378 266 3053 
Q 266 3750 677 4175 
Q 1088 4600 1706 4600 
Q 2153 4600 2523 4359 
Q 2894 4119 3086 3673 
Q 3278 3228 3278 2384 
Q 3278 1506 3087 986 
Q 2897 466 2520 194 
Q 2144 -78 1638 -78 
Q 1100 -78 759 220 
Q 419 519 350 1059 
z
M 2653 3081 
Q 2653 3566 2395 3850 
Q 2138 4134 1775 4134 
Q 1400 4134 1122 3828 
Q 844 3522 844 3034 
Q 844 2597 1108 2323 
Q 1372 2050 1759 2050 
Q 2150 2050 2401 2323 
Q 2653 2597 2653 3081 
z
" transform="scale(0.015625)"/>
       <path id="ArialMT-33" d="M 269 1209 
L 831 1284 
Q 928 806 1161 595 
Q 1394 384 1728 384 
Q 2125 384 2398 659 
Q 2672 934 2672 1341 
Q 2672 1728 2419 1979 
Q 2166 2231 1775 2231 
Q 1616 2231 1378 2169 
L 1441 2663 
Q 1497 2656 1531 2656 
Q 1891 2656 2178 2843 
Q 2466 3031 2466 3422 
Q 2466 3731 2256 3934 
Q 2047 4138 1716 4138 
Q 1388 4138 1169 3931 
Q 950 3725 888 3313 
L 325 3413 
Q 428 3978 793 4289 
Q 1159 4600 1703 4600 
Q 2078 4600 2393 4439 
Q 2709 4278 2876 4000 
Q 3044 3722 3044 3409 
Q 3044 3113 2884 2869 
Q 2725 2625 2413 2481 
Q 2819 2388 3044 2092 
Q 3269 1797 3269 1353 
Q 3269 753 2831 336 
Q 2394 -81 1725 -81 
Q 1122 -81 723 278 
Q 325 638 269 1209 
z
" transform="scale(0.015625)"/>
      </defs>
      <use xlink:href="#ArialMT-4c"/>
      <use xlink:href="#ArialMT-6f" x="55.615234"/>
      <use xlink:href="#ArialMT-67" x="111.230469"/>
      <use xlink:href="#ArialMT-69" x="166.845703"/>
      <use xlink:href="#ArialMT-73" x="189.0625"/>
      <use xlink:href="#ArialMT-74" x="239.0625"/>
      <use xlink:href="#ArialMT-69" x="266.845703"/>
      <use xlink:href="#ArialMT-63" x="289.0625"/>
      <use xlink:href="#ArialMT-52" x="339.0625"/>
      <use xlink:href="#ArialMT-65" x="411.279297"/>
      <use xlink:href="#ArialMT-67" x="466.894531"/>
      <use xlink:href="#ArialMT-72" x="522.509766"/>
      <use xlink:href="#ArialMT-65" x="555.810547"/>
      <use xlink:href="#ArialMT-73" x="611.425781"/>
      <use xlink:href="#ArialMT-73" x="661.425781"/>
      <use xlink:href="#ArialMT-69" x="711.425781"/>
      <use xlink:href="#ArialMT-6f" x="733.642578"/>
      <use xlink:href="#ArialMT-6e" x="789.257812"/>
      <use xlink:href="#ArialMT-2c" x="844.873047"/>
      <use xlink:href="#ArialMT-20" x="872.65625"/>
      <use xlink:href="#ArialMT-41" x="894.939453"/>
      <use xlink:href="#ArialMT-55" x="961.638672"/>
      <use xlink:href="#ArialMT-43" x="1033.855469"/>
      <use xlink:href="#ArialMT-3d" x="1106.072266"/>
      <use xlink:href="#ArialMT-30" x="1164.470703"/>
      <use xlink:href="#ArialMT-2e" x="1220.085938"/>
      <use xlink:href="#ArialMT-39" x="1247.869141"/>
      <use xlink:href="#ArialMT-33" x="1303.484375"/>
      <use xlink:href="#ArialMT-38" x="1359.099609"/>
     </g>
    </g>
    <g id="line2d_20">
     <path d="M 322.087812 321.60125 
L 333.087812 321.60125 
L 344.087812 321.60125 
" style="fill: none; stroke: #dd8452; stroke-width: 1.5; stroke-linecap: round"/>
    </g>
    <g id="text_17">
     <!-- SVM, AUC=0.9237 -->
     <g style="fill: #262626" transform="translate(352.887812 325.45125) scale(0.11 -0.11)">
      <defs>
       <path id="ArialMT-53" d="M 288 1472 
L 859 1522 
Q 900 1178 1048 958 
Q 1197 738 1509 602 
Q 1822 466 2213 466 
Q 2559 466 2825 569 
Q 3091 672 3220 851 
Q 3350 1031 3350 1244 
Q 3350 1459 3225 1620 
Q 3100 1781 2813 1891 
Q 2628 1963 1997 2114 
Q 1366 2266 1113 2400 
Q 784 2572 623 2826 
Q 463 3081 463 3397 
Q 463 3744 659 4045 
Q 856 4347 1234 4503 
Q 1613 4659 2075 4659 
Q 2584 4659 2973 4495 
Q 3363 4331 3572 4012 
Q 3781 3694 3797 3291 
L 3216 3247 
Q 3169 3681 2898 3903 
Q 2628 4125 2100 4125 
Q 1550 4125 1298 3923 
Q 1047 3722 1047 3438 
Q 1047 3191 1225 3031 
Q 1400 2872 2139 2705 
Q 2878 2538 3153 2413 
Q 3553 2228 3743 1945 
Q 3934 1663 3934 1294 
Q 3934 928 3725 604 
Q 3516 281 3123 101 
Q 2731 -78 2241 -78 
Q 1619 -78 1198 103 
Q 778 284 539 648 
Q 300 1013 288 1472 
z
" transform="scale(0.015625)"/>
       <path id="ArialMT-56" d="M 1803 0 
L 28 4581 
L 684 4581 
L 1875 1253 
Q 2019 853 2116 503 
Q 2222 878 2363 1253 
L 3600 4581 
L 4219 4581 
L 2425 0 
L 1803 0 
z
" transform="scale(0.015625)"/>
       <path id="ArialMT-4d" d="M 475 0 
L 475 4581 
L 1388 4581 
L 2472 1338 
Q 2622 884 2691 659 
Q 2769 909 2934 1394 
L 4031 4581 
L 4847 4581 
L 4847 0 
L 4263 0 
L 4263 3834 
L 2931 0 
L 2384 0 
L 1059 3900 
L 1059 0 
L 475 0 
z
" transform="scale(0.015625)"/>
       <path id="ArialMT-37" d="M 303 3981 
L 303 4522 
L 3269 4522 
L 3269 4084 
Q 2831 3619 2401 2847 
Q 1972 2075 1738 1259 
Q 1569 684 1522 0 
L 944 0 
Q 953 541 1156 1306 
Q 1359 2072 1739 2783 
Q 2119 3494 2547 3981 
L 303 3981 
z
" transform="scale(0.015625)"/>
      </defs>
      <use xlink:href="#ArialMT-53"/>
      <use xlink:href="#ArialMT-56" x="66.699219"/>
      <use xlink:href="#ArialMT-4d" x="133.398438"/>
      <use xlink:href="#ArialMT-2c" x="216.699219"/>
      <use xlink:href="#ArialMT-20" x="244.482422"/>
      <use xlink:href="#ArialMT-41" x="266.765625"/>
      <use xlink:href="#ArialMT-55" x="333.464844"/>
      <use xlink:href="#ArialMT-43" x="405.681641"/>
      <use xlink:href="#ArialMT-3d" x="477.898438"/>
      <use xlink:href="#ArialMT-30" x="536.296875"/>
      <use xlink:href="#ArialMT-2e" x="591.912109"/>
      <use xlink:href="#ArialMT-39" x="619.695312"/>
      <use xlink:href="#ArialMT-32" x="675.310547"/>
      <use xlink:href="#ArialMT-33" x="730.925781"/>
      <use xlink:href="#ArialMT-37" x="786.541016"/>
     </g>
    </g>
    <g id="line2d_21">
     <path d="M 322.087812 337.161094 
L 333.087812 337.161094 
L 344.087812 337.161094 
" style="fill: none; stroke: #55a868; stroke-width: 1.5; stroke-linecap: round"/>
    </g>
    <g id="text_18">
     <!-- RandomForest, AUC=0.9232 -->
     <g style="fill: #262626" transform="translate(352.887812 341.011094) scale(0.11 -0.11)">
      <defs>
       <path id="ArialMT-61" d="M 2588 409 
Q 2275 144 1986 34 
Q 1697 -75 1366 -75 
Q 819 -75 525 192 
Q 231 459 231 875 
Q 231 1119 342 1320 
Q 453 1522 633 1644 
Q 813 1766 1038 1828 
Q 1203 1872 1538 1913 
Q 2219 1994 2541 2106 
Q 2544 2222 2544 2253 
Q 2544 2597 2384 2738 
Q 2169 2928 1744 2928 
Q 1347 2928 1158 2789 
Q 969 2650 878 2297 
L 328 2372 
Q 403 2725 575 2942 
Q 747 3159 1072 3276 
Q 1397 3394 1825 3394 
Q 2250 3394 2515 3294 
Q 2781 3194 2906 3042 
Q 3031 2891 3081 2659 
Q 3109 2516 3109 2141 
L 3109 1391 
Q 3109 606 3145 398 
Q 3181 191 3288 0 
L 2700 0 
Q 2613 175 2588 409 
z
M 2541 1666 
Q 2234 1541 1622 1453 
Q 1275 1403 1131 1340 
Q 988 1278 909 1158 
Q 831 1038 831 891 
Q 831 666 1001 516 
Q 1172 366 1500 366 
Q 1825 366 2078 508 
Q 2331 650 2450 897 
Q 2541 1088 2541 1459 
L 2541 1666 
z
" transform="scale(0.015625)"/>
       <path id="ArialMT-64" d="M 2575 0 
L 2575 419 
Q 2259 -75 1647 -75 
Q 1250 -75 917 144 
Q 584 363 401 755 
Q 219 1147 219 1656 
Q 219 2153 384 2558 
Q 550 2963 881 3178 
Q 1213 3394 1622 3394 
Q 1922 3394 2156 3267 
Q 2391 3141 2538 2938 
L 2538 4581 
L 3097 4581 
L 3097 0 
L 2575 0 
z
M 797 1656 
Q 797 1019 1065 703 
Q 1334 388 1700 388 
Q 2069 388 2326 689 
Q 2584 991 2584 1609 
Q 2584 2291 2321 2609 
Q 2059 2928 1675 2928 
Q 1300 2928 1048 2622 
Q 797 2316 797 1656 
z
" transform="scale(0.015625)"/>
       <path id="ArialMT-6d" d="M 422 0 
L 422 3319 
L 925 3319 
L 925 2853 
Q 1081 3097 1340 3245 
Q 1600 3394 1931 3394 
Q 2300 3394 2536 3241 
Q 2772 3088 2869 2813 
Q 3263 3394 3894 3394 
Q 4388 3394 4653 3120 
Q 4919 2847 4919 2278 
L 4919 0 
L 4359 0 
L 4359 2091 
Q 4359 2428 4304 2576 
Q 4250 2725 4106 2815 
Q 3963 2906 3769 2906 
Q 3419 2906 3187 2673 
Q 2956 2441 2956 1928 
L 2956 0 
L 2394 0 
L 2394 2156 
Q 2394 2531 2256 2718 
Q 2119 2906 1806 2906 
Q 1569 2906 1367 2781 
Q 1166 2656 1075 2415 
Q 984 2175 984 1722 
L 984 0 
L 422 0 
z
" transform="scale(0.015625)"/>
      </defs>
      <use xlink:href="#ArialMT-52"/>
      <use xlink:href="#ArialMT-61" x="72.216797"/>
      <use xlink:href="#ArialMT-6e" x="127.832031"/>
      <use xlink:href="#ArialMT-64" x="183.447266"/>
      <use xlink:href="#ArialMT-6f" x="239.0625"/>
      <use xlink:href="#ArialMT-6d" x="294.677734"/>
      <use xlink:href="#ArialMT-46" x="377.978516"/>
      <use xlink:href="#ArialMT-6f" x="439.0625"/>
      <use xlink:href="#ArialMT-72" x="494.677734"/>
      <use xlink:href="#ArialMT-65" x="527.978516"/>
      <use xlink:href="#ArialMT-73" x="583.59375"/>
      <use xlink:href="#ArialMT-74" x="633.59375"/>
      <use xlink:href="#ArialMT-2c" x="661.376953"/>
      <use xlink:href="#ArialMT-20" x="689.160156"/>
      <use xlink:href="#ArialMT-41" x="711.443359"/>
      <use xlink:href="#ArialMT-55" x="778.142578"/>
      <use xlink:href="#ArialMT-43" x="850.359375"/>
      <use xlink:href="#ArialMT-3d" x="922.576172"/>
      <use xlink:href="#ArialMT-30" x="980.974609"/>
      <use xlink:href="#ArialMT-2e" x="1036.589844"/>
      <use xlink:href="#ArialMT-39" x="1064.373047"/>
      <use xlink:href="#ArialMT-32" x="1119.988281"/>
      <use xlink:href="#ArialMT-33" x="1175.603516"/>
      <use xlink:href="#ArialMT-32" x="1231.21875"/>
     </g>
    </g>
    <g id="line2d_22">
     <path d="M 322.087812 352.855 
L 333.087812 352.855 
L 344.087812 352.855 
" style="fill: none; stroke: #c44e52; stroke-width: 1.5; stroke-linecap: round"/>
    </g>
    <g id="text_19">
     <!-- LightGBM, AUC=0.9047 -->
     <g style="fill: #262626" transform="translate(352.887812 356.705) scale(0.11 -0.11)">
      <defs>
       <path id="ArialMT-68" d="M 422 0 
L 422 4581 
L 984 4581 
L 984 2938 
Q 1378 3394 1978 3394 
Q 2347 3394 2619 3248 
Q 2891 3103 3008 2847 
Q 3125 2591 3125 2103 
L 3125 0 
L 2563 0 
L 2563 2103 
Q 2563 2525 2380 2717 
Q 2197 2909 1863 2909 
Q 1613 2909 1392 2779 
Q 1172 2650 1078 2428 
Q 984 2206 984 1816 
L 984 0 
L 422 0 
z
" transform="scale(0.015625)"/>
       <path id="ArialMT-47" d="M 2638 1797 
L 2638 2334 
L 4578 2338 
L 4578 638 
Q 4131 281 3656 101 
Q 3181 -78 2681 -78 
Q 2006 -78 1454 211 
Q 903 500 622 1047 
Q 341 1594 341 2269 
Q 341 2938 620 3517 
Q 900 4097 1425 4378 
Q 1950 4659 2634 4659 
Q 3131 4659 3532 4498 
Q 3934 4338 4162 4050 
Q 4391 3763 4509 3300 
L 3963 3150 
Q 3859 3500 3706 3700 
Q 3553 3900 3268 4020 
Q 2984 4141 2638 4141 
Q 2222 4141 1919 4014 
Q 1616 3888 1430 3681 
Q 1244 3475 1141 3228 
Q 966 2803 966 2306 
Q 966 1694 1177 1281 
Q 1388 869 1791 669 
Q 2194 469 2647 469 
Q 3041 469 3416 620 
Q 3791 772 3984 944 
L 3984 1797 
L 2638 1797 
z
" transform="scale(0.015625)"/>
       <path id="ArialMT-42" d="M 469 0 
L 469 4581 
L 2188 4581 
Q 2713 4581 3030 4442 
Q 3347 4303 3526 4014 
Q 3706 3725 3706 3409 
Q 3706 3116 3547 2856 
Q 3388 2597 3066 2438 
Q 3481 2316 3704 2022 
Q 3928 1728 3928 1328 
Q 3928 1006 3792 729 
Q 3656 453 3456 303 
Q 3256 153 2954 76 
Q 2653 0 2216 0 
L 469 0 
z
M 1075 2656 
L 2066 2656 
Q 2469 2656 2644 2709 
Q 2875 2778 2992 2937 
Q 3109 3097 3109 3338 
Q 3109 3566 3000 3739 
Q 2891 3913 2687 3977 
Q 2484 4041 1991 4041 
L 1075 4041 
L 1075 2656 
z
M 1075 541 
L 2216 541 
Q 2509 541 2628 563 
Q 2838 600 2978 687 
Q 3119 775 3209 942 
Q 3300 1109 3300 1328 
Q 3300 1584 3169 1773 
Q 3038 1963 2805 2039 
Q 2572 2116 2134 2116 
L 1075 2116 
L 1075 541 
z
" transform="scale(0.015625)"/>
      </defs>
      <use xlink:href="#ArialMT-4c"/>
      <use xlink:href="#ArialMT-69" x="55.615234"/>
      <use xlink:href="#ArialMT-67" x="77.832031"/>
      <use xlink:href="#ArialMT-68" x="133.447266"/>
      <use xlink:href="#ArialMT-74" x="189.0625"/>
      <use xlink:href="#ArialMT-47" x="216.845703"/>
      <use xlink:href="#ArialMT-42" x="294.628906"/>
      <use xlink:href="#ArialMT-4d" x="361.328125"/>
      <use xlink:href="#ArialMT-2c" x="444.628906"/>
      <use xlink:href="#ArialMT-20" x="472.412109"/>
      <use xlink:href="#ArialMT-41" x="494.695312"/>
      <use xlink:href="#ArialMT-55" x="561.394531"/>
      <use xlink:href="#ArialMT-43" x="633.611328"/>
      <use xlink:href="#ArialMT-3d" x="705.828125"/>
      <use xlink:href="#ArialMT-30" x="764.226562"/>
      <use xlink:href="#ArialMT-2e" x="819.841797"/>
      <use xlink:href="#ArialMT-39" x="847.625"/>
      <use xlink:href="#ArialMT-30" x="903.240234"/>
      <use xlink:href="#ArialMT-34" x="958.855469"/>
      <use xlink:href="#ArialMT-37" x="1014.470703"/>
     </g>
    </g>
    <g id="line2d_23">
     <path d="M 322.087812 368.54375 
L 333.087812 368.54375 
L 344.087812 368.54375 
" style="fill: none; stroke: #8172b3; stroke-width: 1.5; stroke-linecap: round"/>
    </g>
    <g id="text_20">
     <!-- XGBoost, AUC=0.9221 -->
     <g style="fill: #262626" transform="translate(352.887812 372.39375) scale(0.11 -0.11)">
      <defs>
       <path id="ArialMT-58" d="M 28 0 
L 1800 2388 
L 238 4581 
L 959 4581 
L 1791 3406 
Q 2050 3041 2159 2844 
Q 2313 3094 2522 3366 
L 3444 4581 
L 4103 4581 
L 2494 2422 
L 4228 0 
L 3478 0 
L 2325 1634 
Q 2228 1775 2125 1941 
Q 1972 1691 1906 1597 
L 756 0 
L 28 0 
z
" transform="scale(0.015625)"/>
      </defs>
      <use xlink:href="#ArialMT-58"/>
      <use xlink:href="#ArialMT-47" x="66.699219"/>
      <use xlink:href="#ArialMT-42" x="144.482422"/>
      <use xlink:href="#ArialMT-6f" x="211.181641"/>
      <use xlink:href="#ArialMT-6f" x="266.796875"/>
      <use xlink:href="#ArialMT-73" x="322.412109"/>
      <use xlink:href="#ArialMT-74" x="372.412109"/>
      <use xlink:href="#ArialMT-2c" x="400.195312"/>
      <use xlink:href="#ArialMT-20" x="427.978516"/>
      <use xlink:href="#ArialMT-41" x="450.261719"/>
      <use xlink:href="#ArialMT-55" x="516.960938"/>
      <use xlink:href="#ArialMT-43" x="589.177734"/>
      <use xlink:href="#ArialMT-3d" x="661.394531"/>
      <use xlink:href="#ArialMT-30" x="719.792969"/>
      <use xlink:href="#ArialMT-2e" x="775.408203"/>
      <use xlink:href="#ArialMT-39" x="803.191406"/>
      <use xlink:href="#ArialMT-32" x="858.806641"/>
      <use xlink:href="#ArialMT-32" x="914.421875"/>
      <use xlink:href="#ArialMT-31" x="970.037109"/>
     </g>
    </g>
   </g>
  </g>
 </g>
 <defs>
  <clipPath id="p469afb7c60">
   <rect x="72" y="51.84" width="446.4" height="332.64"/>
  </clipPath>
 </defs>
</svg>
